<?xml version="1.0" encoding="UTF-8" standalone="no"?>
<svg xmlns:dc="http://purl.org/dc/elements/1.1/" xmlns:cc="http://creativecommons.org/ns#" xmlns:rdf="http://www.w3.org/1999/02/22-rdf-syntax-ns#" xmlns:svg="http://www.w3.org/2000/svg" xmlns="http://www.w3.org/2000/svg" xmlns:sodipodi="http://sodipodi.sourceforge.net/DTD/sodipodi-0.dtd" xmlns:inkscape="http://www.inkscape.org/namespaces/inkscape" version="1.1" width="200" height="53" viewBox="0 0 200 53" xml:space="preserve" id="svg2" inkscape:version="0.48.4 r9939" sodipodi:docname="logo-opquast-bleu2.svg"><metadata id="metadata30"><rdf:RDF><cc:Work rdf:about=""><dc:format>image/svg+xml</dc:format><dc:type rdf:resource="http://purl.org/dc/dcmitype/StillImage"/><dc:title/></cc:Work></rdf:RDF></metadata><defs id="defs28"/><sodipodi:namedview pagecolor="#ffffff" bordercolor="#666666" borderopacity="1" objecttolerance="10" gridtolerance="10" guidetolerance="10" inkscape:pageopacity="0" inkscape:pageshadow="2" inkscape:window-width="1920" inkscape:window-height="1006" id="namedview26" showgrid="false" inkscape:zoom="2.1184342" inkscape:cx="24.182483" inkscape:cy="13.444401" inkscape:window-x="0" inkscape:window-y="25" inkscape:window-maximized="1" inkscape:current-layer="svg2"/><g id="g3062" transform="matrix(1.0071707,0,0,1.0071707,0.568358,-50.176195)"><g transform="matrix(2.4089652,0,0,-2.4089652,35.495551,73.203426)" id="g20"><path id="path22" style="fill:#2b7883;fill-opacity:1;fill-rule:nonzero;stroke:none" d="M 0,0 -0.788,-0.777 -8.35,-8.323 c -0.182,-0.181 -0.451,-0.222 -0.705,0.032 l -1.47,1.451 c -0.181,0.197 -0.191,0.471 0.019,0.681 L -4.338,0.004 0,0 z" inkscape:connector-curvature="0"/></g><g transform="matrix(2.4089652,0,0,-2.4089652,35.495551,73.203426)" id="g24"><path id="path26" style="fill:#2d9e9f;fill-opacity:1;fill-rule:nonzero;stroke:none" d="M 0,0 3.368,-3.375 C 3.536,-3.543 3.548,-3.895 3.34,-4.102 L 1.873,-5.565 C 1.697,-5.741 1.402,-5.729 1.211,-5.539 L -4.338,0.004 0,0 z" inkscape:connector-curvature="0"/></g><g transform="matrix(2.4089652,0,0,-2.4089652,8.4183011,76.960449)" id="g28"><path id="path30" style="fill:#309751;fill-opacity:1;fill-rule:nonzero;stroke:none" d="M 0,0 0.768,0.761 8.179,8.173 C 8.361,8.353 8.67,8.381 8.886,8.142 l 1.471,-1.45 c 0.19,-0.188 0.19,-0.471 -0.018,-0.681 L 4.318,-0.013 0,0 z" inkscape:connector-curvature="0"/></g><g transform="matrix(2.4089652,0,0,-2.4089652,8.408906,76.981407)" id="g32"><path id="path34" style="fill:#63bc51;fill-opacity:1;fill-rule:nonzero;stroke:none" d="m 0,0 -3.372,3.371 c -0.169,0.168 -0.18,0.518 0.028,0.726 l 1.465,1.466 c 0.176,0.176 0.471,0.164 0.661,-0.024 L 4.322,-0.004 0,0 z" inkscape:connector-curvature="0"/></g><g style="fill:#1f4355;fill-opacity:1" transform="matrix(2.4089652,0,0,-2.4089652,61.347361,83.384918)" id="g36"><path id="path38" style="fill:#1f4355;fill-opacity:1;fill-rule:nonzero;stroke:none" d="m 0,0 c 0.865,0 1.504,0.303 1.918,0.908 0.414,0.607 0.622,1.447 0.622,2.528 0,1.078 -0.208,1.918 -0.622,2.518 -0.414,0.6 -1.053,0.9 -1.918,0.9 -0.865,0 -1.503,-0.3 -1.911,-0.9 -0.408,-0.6 -0.611,-1.44 -0.611,-2.518 0,-1.081 0.203,-1.921 0.611,-2.528 C -1.503,0.303 -0.865,0 0,0 m 0,-1.436 c -0.752,0 -1.412,0.123 -1.976,0.373 -0.565,0.247 -1.036,0.589 -1.412,1.026 -0.376,0.437 -0.655,0.951 -0.838,1.545 -0.182,0.595 -0.271,1.238 -0.271,1.928 0,0.692 0.089,1.334 0.271,1.927 0.183,0.595 0.462,1.109 0.838,1.545 0.376,0.437 0.847,0.782 1.412,1.037 C -1.412,8.201 -0.752,8.328 0,8.328 0.752,8.328 1.412,8.201 1.976,7.945 2.54,7.69 3.011,7.345 3.386,6.908 3.762,6.472 4.043,5.958 4.223,5.363 4.405,4.77 4.496,4.128 4.496,3.436 4.496,2.746 4.405,2.103 4.223,1.508 4.043,0.914 3.762,0.4 3.386,-0.037 3.011,-0.474 2.54,-0.816 1.976,-1.063 1.412,-1.313 0.752,-1.436 0,-1.436" inkscape:connector-curvature="0"/></g><g style="fill:#1f4355;fill-opacity:1" transform="matrix(2.4089652,0,0,-2.4089652,79.500355,82.641752)" id="g40"><path id="path42" style="fill:#1f4355;fill-opacity:1;fill-rule:nonzero;stroke:none" d="m 0,0 c 0.237,-0.085 0.483,-0.145 0.734,-0.182 0.25,-0.036 0.577,-0.053 0.978,-0.053 0.452,0 0.866,0.069 1.242,0.208 0.376,0.14 0.699,0.355 0.97,0.644 0.269,0.291 0.481,0.658 0.639,1.102 0.157,0.441 0.234,0.967 0.234,1.572 0,0.97 -0.184,1.74 -0.554,2.311 C 3.873,6.169 3.267,6.455 2.427,6.455 2.112,6.455 1.813,6.399 1.524,6.291 1.235,6.182 0.978,6.019 0.752,5.799 0.526,5.582 0.344,5.306 0.208,4.974 0.069,4.639 0,4.243 0,3.781 L 0,0 z m -1.863,7.801 c 0.125,0.024 0.255,0.042 0.386,0.053 0.13,0.013 0.267,0.019 0.404,0.019 0.124,0 0.257,-0.006 0.396,-0.019 0.136,-0.011 0.269,-0.029 0.394,-0.053 0.013,-0.026 0.03,-0.101 0.047,-0.228 0.02,-0.126 0.038,-0.263 0.058,-0.409 0.017,-0.145 0.037,-0.286 0.055,-0.418 0.02,-0.133 0.028,-0.218 0.028,-0.254 0.127,0.193 0.277,0.381 0.453,0.563 0.175,0.182 0.384,0.346 0.63,0.491 0.245,0.146 0.521,0.261 0.827,0.346 0.308,0.084 0.65,0.127 1.026,0.127 0.564,0 1.087,-0.091 1.572,-0.273 C 4.895,7.563 5.31,7.282 5.655,6.9 5.999,6.518 6.269,6.033 6.462,5.445 6.659,4.857 6.755,4.164 6.755,3.364 6.755,1.764 6.306,0.513 5.409,-0.391 4.512,-1.295 3.243,-1.744 1.6,-1.744 1.323,-1.744 1.042,-1.727 0.752,-1.691 0.463,-1.655 0.214,-1.605 0,-1.547 l 0,-3.605 c -0.15,-0.024 -0.311,-0.043 -0.479,-0.055 -0.17,-0.012 -0.323,-0.018 -0.461,-0.018 -0.139,0 -0.291,0.006 -0.462,0.018 -0.17,0.012 -0.323,0.031 -0.461,0.055 l 0,12.953 z" inkscape:connector-curvature="0"/></g><g style="fill:#1f4355;fill-opacity:1" transform="matrix(2.4089652,0,0,-2.4089652,114.69967,67.325552)" id="g44"><path id="path46" style="fill:#1f4355;fill-opacity:1;fill-rule:nonzero;stroke:none" d="m 0,0 c -0.176,0.038 -0.322,0.065 -0.441,0.083 -0.122,0.018 -0.232,0.03 -0.338,0.036 -0.108,0.006 -0.215,0.011 -0.322,0.017 -0.106,0.007 -0.227,0.01 -0.366,0.01 -0.553,0 -1.035,-0.091 -1.449,-0.273 C -3.33,-0.309 -3.673,-0.563 -3.941,-0.891 -4.211,-1.218 -4.415,-1.606 -4.554,-2.053 -4.692,-2.502 -4.76,-3 -4.76,-3.544 c 0,-0.546 0.075,-1.014 0.227,-1.4 0.15,-0.39 0.359,-0.707 0.629,-0.957 0.269,-0.247 0.586,-0.428 0.95,-0.534 0.364,-0.108 0.765,-0.165 1.204,-0.165 0.326,0 0.637,0.024 0.933,0.074 0.295,0.047 0.565,0.103 0.817,0.162 L 0,0 z m 0,-7.89 c -0.264,-0.062 -0.543,-0.109 -0.838,-0.145 -0.295,-0.038 -0.623,-0.055 -0.987,-0.055 -0.652,0 -1.274,0.075 -1.862,0.227 -0.591,0.152 -1.108,0.408 -1.554,0.773 -0.445,0.364 -0.8,0.84 -1.063,1.427 -0.261,0.588 -0.394,1.319 -0.394,2.19 0,0.752 0.123,1.443 0.366,2.073 0.246,0.629 0.594,1.174 1.046,1.628 0.451,0.455 0.999,0.805 1.645,1.055 0.645,0.247 1.37,0.372 2.174,0.372 0.701,0 1.305,-0.035 1.806,-0.109 C 0.84,1.473 1.343,1.37 1.846,1.237 l 0,-12.788 c -0.139,-0.024 -0.293,-0.043 -0.461,-0.056 -0.171,-0.012 -0.325,-0.018 -0.462,-0.018 -0.139,0 -0.293,0.006 -0.462,0.018 -0.17,0.013 -0.322,0.032 -0.461,0.056 l 0,3.661 z" inkscape:connector-curvature="0"/></g><g style="fill:#1f4355;fill-opacity:1" transform="matrix(2.4089652,0,0,-2.4089652,122.2089,63.792082)" id="g48"><path id="path50" style="fill:#1f4355;fill-opacity:1;fill-rule:nonzero;stroke:none" d="M 0,0 C 0.139,0.024 0.295,0.042 0.471,0.054 0.646,0.065 0.797,0.071 0.922,0.071 1.061,0.071 1.217,0.065 1.394,0.054 1.567,0.042 1.725,0.024 1.863,0 l 0,-5.11 c 0,-0.582 0.057,-1.063 0.17,-1.445 0.113,-0.383 0.281,-0.682 0.508,-0.902 0.225,-0.217 0.502,-0.368 0.828,-0.453 0.324,-0.085 0.701,-0.127 1.129,-0.127 0.639,0 1.184,0.066 1.638,0.201 l 0,7.836 c 0.135,0.024 0.291,0.042 0.459,0.054 0.17,0.011 0.322,0.017 0.461,0.017 0.138,0 0.291,-0.006 0.462,-0.017 C 7.688,0.042 7.84,0.024 7.979,0 l 0,-9.039 C 7.539,-9.159 7.017,-9.274 6.408,-9.383 5.799,-9.492 5.169,-9.547 4.516,-9.547 3.902,-9.547 3.322,-9.494 2.775,-9.393 2.23,-9.29 1.75,-9.081 1.336,-8.765 0.922,-8.45 0.596,-8.006 0.357,-7.436 0.118,-6.868 0,-6.116 0,-5.184 L 0,0 z" inkscape:connector-curvature="0"/></g><g style="fill:#1f4355;fill-opacity:1" transform="matrix(2.4089652,0,0,-2.4089652,158.01889,75.71116)" id="g52"><path id="path54" style="fill:#1f4355;fill-opacity:1;fill-rule:nonzero;stroke:none" d="m 0,0 c -0.188,0.023 -0.426,0.047 -0.715,0.073 -0.289,0.025 -0.533,0.036 -0.734,0.036 -0.779,0 -1.37,-0.14 -1.779,-0.418 -0.408,-0.279 -0.612,-0.705 -0.612,-1.273 0,-0.364 0.069,-0.649 0.208,-0.856 0.137,-0.205 0.312,-0.362 0.518,-0.47 0.207,-0.112 0.435,-0.177 0.686,-0.2 0.25,-0.027 0.49,-0.038 0.715,-0.038 0.289,0 0.586,0.015 0.895,0.045 0.307,0.031 0.58,0.076 0.818,0.137 L 0,0 z m 0,1.764 c 0,0.715 -0.188,1.212 -0.564,1.491 -0.376,0.277 -0.923,0.418 -1.638,0.418 -0.44,0 -0.85,-0.034 -1.232,-0.101 -0.383,-0.068 -0.755,-0.155 -1.12,-0.263 -0.238,0.399 -0.356,0.879 -0.356,1.437 0.426,0.132 0.894,0.235 1.409,0.309 0.515,0.071 1.01,0.109 1.487,0.109 1.253,0 2.207,-0.277 2.862,-0.828 C 1.499,3.784 1.825,2.903 1.825,1.691 l 0,-5.837 C 1.386,-4.243 0.854,-4.342 0.226,-4.447 -0.402,-4.548 -1.042,-4.6 -1.693,-4.6 c -0.616,0 -1.17,0.054 -1.667,0.162 -0.495,0.11 -0.915,0.286 -1.259,0.528 -0.345,0.243 -0.612,0.553 -0.8,0.928 -0.188,0.375 -0.281,0.83 -0.281,1.363 0,0.522 0.108,0.979 0.328,1.373 0.218,0.394 0.517,0.721 0.893,0.982 0.376,0.26 0.81,0.453 1.299,0.582 0.489,0.127 1.002,0.191 1.542,0.191 0.403,0 0.731,-0.01 0.989,-0.029 C -0.393,1.463 -0.177,1.441 0,1.418 l 0,0.346 z" inkscape:connector-curvature="0"/></g><g style="fill:#1f4355;fill-opacity:1" transform="matrix(2.4089652,0,0,-2.4089652,165.93957,82.232228)" id="g56"><path id="path58" style="fill:#1f4355;fill-opacity:1;fill-rule:nonzero;stroke:none" d="m 0,0 c 0.339,-0.133 0.713,-0.237 1.121,-0.316 0.408,-0.08 0.812,-0.12 1.214,-0.12 0.287,0 0.564,0.031 0.827,0.092 0.264,0.061 0.491,0.151 0.688,0.274 0.193,0.12 0.35,0.268 0.468,0.445 0.12,0.176 0.179,0.372 0.179,0.59 0,0.241 -0.046,0.443 -0.141,0.599 C 4.264,1.723 4.137,1.855 3.98,1.965 3.823,2.073 3.642,2.168 3.436,2.248 3.228,2.324 3.006,2.402 2.767,2.474 L 2.109,2.711 C 1.305,3.002 0.723,3.328 0.358,3.693 c -0.364,0.362 -0.546,0.854 -0.546,1.471 0,0.826 0.305,1.479 0.913,1.964 0.61,0.485 1.503,0.727 2.683,0.727 0.487,0 0.968,-0.043 1.44,-0.137 C 5.316,7.629 5.727,7.522 6.079,7.401 6.053,7.158 6.006,6.917 5.937,6.673 5.869,6.431 5.784,6.208 5.683,6.001 5.407,6.099 5.079,6.192 4.695,6.283 4.313,6.374 3.901,6.419 3.463,6.419 2.998,6.419 2.588,6.34 2.229,6.184 1.873,6.025 1.695,5.746 1.695,5.346 1.695,5.141 1.739,4.966 1.826,4.82 1.913,4.675 2.032,4.549 2.185,4.447 2.335,4.344 2.507,4.256 2.701,4.184 2.896,4.111 3.104,4.037 3.331,3.965 L 4.158,3.693 C 4.461,3.596 4.746,3.479 5.016,3.347 5.285,3.214 5.517,3.047 5.711,2.848 5.906,2.647 6.063,2.404 6.182,2.119 6.301,1.834 6.36,1.493 6.36,1.092 6.36,0.645 6.267,0.234 6.079,-0.135 5.891,-0.504 5.623,-0.819 5.279,-1.08 4.935,-1.342 4.517,-1.544 4.027,-1.69 3.538,-1.835 2.998,-1.908 2.41,-1.908 c -0.604,0 -1.131,0.039 -1.582,0.119 -0.451,0.078 -0.871,0.184 -1.262,0.318 0.027,0.242 0.08,0.488 0.162,0.737 C -0.189,-0.486 -0.099,-0.241 0,0" inkscape:connector-curvature="0"/></g><g style="fill:#1f4355;fill-opacity:1" transform="matrix(2.4089652,0,0,-2.4089652,186.49816,67.469126)" id="g60"><path id="path62" style="fill:#1f4355;fill-opacity:1;fill-rule:nonzero;stroke:none" d="m 0,0 -1.468,0 -0.075,0.255 3.235,3.491 0.153,0 0,-2.308 2.445,0 C 4.34,1.229 4.365,1 4.365,0.747 4.365,0.612 4.359,0.485 4.346,0.364 4.334,0.244 4.316,0.123 4.29,0 l -2.445,0 0,-4.255 c 0,-0.508 0.02,-0.914 0.065,-1.217 0.044,-0.303 0.119,-0.537 0.226,-0.699 0.107,-0.164 0.252,-0.274 0.431,-0.329 0.183,-0.054 0.412,-0.082 0.688,-0.082 0.214,0 0.414,0.016 0.601,0.046 0.189,0.03 0.359,0.064 0.509,0.101 0.088,-0.243 0.141,-0.49 0.161,-0.746 0.018,-0.256 0.028,-0.48 0.028,-0.674 C 4.303,-7.916 4.039,-7.959 3.764,-7.992 3.486,-8.021 3.191,-8.037 2.879,-8.037 1.976,-8.037 1.271,-7.825 0.762,-7.399 0.253,-6.976 0,-6.273 0,-5.291 L 0,0 z" inkscape:connector-curvature="0"/></g></g></svg>