<!--?xml version="1.0" encoding="utf-8"?-->
<!-- Generator: Adobe Illustrator 18.0.0, SVG Export Plug-In . SVG Version: 6.00 Build 0)  -->

<svg version="1.1" id="_x31_0" xmlns="http://www.w3.org/2000/svg" xmlns:xlink="http://www.w3.org/1999/xlink" x="0px" y="0px" viewBox="0 0 512 512" width="16" height="16" style="width: 16px; height: 16px; opacity: 1;" xml:space="preserve">
<style type="text/css">
	.st0{fill:#374149;}
</style>
<g>
	<path class="st0" d="M511.984,305.375l-0.062-44.637L512,206.606c0-1.211-0.058-2.406-0.176-3.586l-0.023-17.035
		c-0.012-8.653-7.035-15.653-15.688-15.641l-19.699,0.031c-0.054,0-0.109-0.016-0.164-0.016l-119.406,0.176
		c-2.149,0.004-4.196-0.43-6.059-1.211c-0.172-0.07-0.32-0.175-0.484-0.254c-0.738-0.34-1.461-0.707-2.129-1.152
		c-0.258-0.168-0.477-0.383-0.723-0.566c-0.531-0.398-1.062-0.805-1.538-1.266c-0.458-0.473-0.856-0.997-1.25-1.52
		c-0.191-0.254-0.41-0.48-0.582-0.742c-0.45-0.675-0.821-1.398-1.161-2.14c-0.074-0.161-0.175-0.305-0.242-0.469
		c-0.782-1.863-1.215-3.91-1.211-6.059l0.176-119.406c0-0.055-0.016-0.11-0.016-0.164l0.027-19.703
		c0.012-8.649-6.984-15.672-15.637-15.688l-17.038-0.023c-1.18-0.117-2.375-0.176-3.586-0.172l-54.289,0.078l-44.481-0.066
		c-0.046,0-0.086,0.015-0.133,0.015L186.726,0c-8.648-0.015-15.668,6.985-15.679,15.633l-0.02,13.282
		c-0.008,0.046-0.004,0.094-0.015,0.141c-0.41,2.171-0.653,4.402-0.653,6.695l0.176,119.406c0.004,0.833-0.118,1.637-0.242,2.438
		c-0.035,0.242-0.027,0.496-0.074,0.734c-0.102,0.489-0.289,0.934-0.434,1.402c-0.168,0.551-0.304,1.114-0.531,1.637
		c-0.144,0.328-0.347,0.625-0.511,0.942c-0.321,0.617-0.633,1.234-1.027,1.797c-0.165,0.238-0.367,0.438-0.543,0.664
		c-0.457,0.578-0.922,1.149-1.454,1.66c-0.378,0.344-0.793,0.641-1.203,0.95c-0.332,0.25-0.648,0.519-1,0.742
		c-0.531,0.335-1.101,0.605-1.671,0.874c-0.29,0.137-0.559,0.305-0.856,0.426c-0.816,0.329-1.675,0.578-2.554,0.766
		c-0.074,0.015-0.145,0.046-0.218,0.062c-0.985,0.195-2.004,0.297-3.043,0.293l-139.286-0.199
		c-8.652-0.012-15.675,6.988-15.687,15.641L0.176,203.02C0.058,204.199,0,205.394,0,206.606l0.078,54.293l-0.062,44.5
		c0,0.078,0.011,0.153,0.011,0.23L0,325.27c-0.015,8.649,6.984,15.672,15.637,15.683l13.278,0.02
		c0.125,0.023,0.258,0.012,0.382,0.035c1.641,0.301,3.336,0.418,5.051,0.484c0.472,0.016,0.918,0.133,1.394,0.133l119.402-0.175
		c1.098-0.004,2.164,0.117,3.199,0.332c0.179,0.038,0.343,0.109,0.523,0.152c0.824,0.199,1.629,0.45,2.398,0.778
		c0.254,0.109,0.492,0.246,0.738,0.367c0.664,0.328,1.309,0.679,1.914,1.094c0.246,0.168,0.477,0.351,0.715,0.531
		c0.5,0.382,0.969,0.805,1.418,1.242c0.442,0.453,0.864,0.922,1.246,1.426c0.18,0.234,0.363,0.465,0.527,0.707
		c0.414,0.609,0.774,1.258,1.098,1.922c0.122,0.246,0.258,0.481,0.363,0.73c0.332,0.774,0.582,1.586,0.786,2.418
		c0.043,0.171,0.11,0.328,0.145,0.503c0.214,1.035,0.335,2.102,0.335,3.203l-0.175,119.402c0,0.473,0.113,0.914,0.133,1.387
		c0.066,1.714,0.183,3.414,0.484,5.058c0.02,0.121,0.012,0.258,0.035,0.379l0.02,13.281c0.011,8.649,7.031,15.649,15.679,15.637
		l19.641-0.031c0.078,0,0.152,0.015,0.23,0.015l44.664-0.066L305.39,512c1.211,0,2.406-0.062,3.586-0.176l17.038-0.027
		c8.653-0.008,15.649-7.035,15.637-15.683l-0.199-139.286c0-1.042,0.102-2.058,0.293-3.042c0.016-0.078,0.047-0.145,0.063-0.223
		c0.187-0.878,0.437-1.734,0.766-2.55c0.121-0.297,0.289-0.566,0.426-0.856c0.274-0.57,0.539-1.144,0.879-1.675
		c0.218-0.348,0.484-0.657,0.73-0.981c0.308-0.418,0.613-0.84,0.961-1.222c0.508-0.527,1.074-0.989,1.648-1.442
		c0.23-0.18,0.434-0.39,0.676-0.554c0.562-0.395,1.18-0.707,1.793-1.024c0.321-0.168,0.614-0.371,0.946-0.511
		c0.523-0.227,1.09-0.363,1.641-0.535c0.465-0.141,0.91-0.332,1.394-0.43c0.234-0.047,0.484-0.039,0.718-0.074
		c0.805-0.129,1.614-0.246,2.458-0.246l119.406,0.176c2.29,0.004,4.52-0.238,6.692-0.652c0.046-0.008,0.098-0.004,0.144-0.012
		l13.278-0.02c8.652-0.011,15.652-7.034,15.637-15.683l-0.027-19.758C511.973,305.465,511.984,305.422,511.984,305.375z"></path>
</g>
</svg>
