/* XPM */
static char * bluegriffon50_xpm[] = {
"50 50 899 2",
"  	c None",
". 	c #59FD21",
"+ 	c #5AFE22",
"@ 	c #60FE2C",
"# 	c #56FE1E",
"$ 	c #55FE1C",
"% 	c #56FE1C",
"& 	c #61FD2C",
"* 	c #61FE2C",
"= 	c #56FE1D",
"- 	c #56FD1E",
"; 	c #60FD2C",
"> 	c #55FF1B",
", 	c #61FE2B",
"' 	c #57FE1E",
") 	c #55FE1B",
"! 	c #55FE1D",
"~ 	c #57FE1D",
"{ 	c #56FD1D",
"] 	c #55FD1D",
"^ 	c #60FC2C",
"/ 	c #56FD1C",
"( 	c #58FD20",
"_ 	c #55FD1C",
": 	c #56FC1E",
"< 	c #1F0B6A",
"[ 	c #10006C",
"} 	c #60FE2B",
"| 	c #57FD1E",
"1 	c #48FD0A",
"2 	c #48FE0A",
"3 	c #57FF1B",
"4 	c #52ED21",
"5 	c #252B5A",
"6 	c #11006E",
"7 	c #12006E",
"8 	c #17007B",
"9 	c #54FE1B",
"0 	c #41FE00",
"a 	c #95FE71",
"b 	c #92FD6F",
"c 	c #40FE01",
"d 	c #55FD1B",
"e 	c #55FA1E",
"f 	c #5DFF14",
"g 	c #2B524D",
"h 	c #15006C",
"i 	c #130070",
"j 	c #17007A",
"k 	c #15007D",
"l 	c #56FF1D",
"m 	c #3CFE00",
"n 	c #8FFE68",
"o 	c #FCFEFB",
"p 	c #FAFDFA",
"q 	c #8CFD66",
"r 	c #3DFE00",
"s 	c #56FF1C",
"t 	c #55FB1D",
"u 	c #5AFF17",
"v 	c #46BE2D",
"w 	c #1B0964",
"x 	c #12006F",
"y 	c #160073",
"z 	c #160078",
"A 	c #16007B",
"B 	c #60FD2B",
"C 	c #57FD1D",
"D 	c #43FE04",
"E 	c #94FE6F",
"F 	c #FBFEFA",
"G 	c #FFFFFF",
"H 	c #FFFEFF",
"I 	c #FBFDFA",
"J 	c #94FD70",
"K 	c #42FE03",
"L 	c #54FF19",
"M 	c #5EFF13",
"N 	c #284750",
"O 	c #100071",
"P 	c #140077",
"Q 	c #3CFD00",
"R 	c #93FD6F",
"S 	c #FCFEFA",
"T 	c #FEFEFD",
"U 	c #FFFDFF",
"V 	c #96FE73",
"W 	c #49FF0C",
"X 	c #5AFF18",
"Y 	c #5AFF19",
"Z 	c #5CFF17",
"` 	c #60FF12",
" .	c #36873D",
"..	c #170068",
"+.	c #11006D",
"@.	c #1F2664",
"#.	c #150673",
"$.	c #150078",
"%.	c #16007C",
"&.	c #62FE2C",
"*.	c #8EFD68",
"=.	c #FAFDF9",
"-.	c #FDFEFD",
";.	c #EEF3EF",
">.	c #0D213A",
",.	c #1D3B40",
"'.	c #4CDA23",
").	c #337E3B",
"!.	c #162453",
"~.	c #43BD2E",
"{.	c #43BB2E",
"].	c #130067",
"^.	c #15006D",
"/.	c #284C55",
"(.	c #170F6E",
"_.	c #130078",
":.	c #64FE2F",
"<.	c #43FE05",
"[.	c #FBFDF9",
"}.	c #FCFCFC",
"|.	c #FBFBFB",
"1.	c #D4D4D8",
"2.	c #DBDBDF",
"3.	c #EAE5EF",
"4.	c #2F1C68",
"5.	c #00004B",
"6.	c #1A2A48",
"7.	c #306B3C",
"8.	c #05005F",
"9.	c #1E3E4E",
"0.	c #44B92F",
"a.	c #0F0464",
"b.	c #17006A",
"c.	c #274C53",
"d.	c #150F6B",
"e.	c #130076",
"f.	c #150079",
"g.	c #15007E",
"h.	c #17017F",
"i.	c #FCFDFB",
"j.	c #CFCFD1",
"k.	c #494555",
"l.	c #09051E",
"m.	c #757381",
"n.	c #A2A0AD",
"o.	c #6D6A80",
"p.	c #7A7699",
"q.	c #000040",
"r.	c #110052",
"s.	c #1A2E49",
"t.	c #110256",
"u.	c #131E54",
"v.	c #3B9737",
"w.	c #120760",
"x.	c #11006A",
"y.	c #2A4A53",
"z.	c #151169",
"A.	c #110075",
"B.	c #20256C",
"C.	c #1A0E77",
"D.	c #14007F",
"E.	c #63FE2F",
"F.	c #3BFE00",
"G.	c #8FFE69",
"H.	c #484755",
"I.	c #000000",
"J.	c #242036",
"K.	c #403D55",
"L.	c #000011",
"M.	c #717080",
"N.	c #BDB9CC",
"O.	c #00003A",
"P.	c #120251",
"Q.	c #0C0052",
"R.	c #110055",
"S.	c #121155",
"T.	c #336C3F",
"U.	c #16055F",
"V.	c #0F0065",
"W.	c #294753",
"X.	c #150E68",
"Y.	c #100073",
"Z.	c #27455E",
"`.	c #1D1A70",
" +	c #140080",
".+	c #64FE30",
"++	c #93FF6D",
"@+	c #CCCBCD",
"#+	c #97989C",
"$+	c #768A8C",
"%+	c #596770",
"&+	c #18152A",
"*+	c #06001A",
"=+	c #0A0420",
"-+	c #000016",
";+	c #000014",
">+	c #B9B7BF",
",+	c #E3E3EA",
"'+	c #241957",
")+	c #090048",
"!+	c #0F014F",
"~+	c #0D0054",
"{+	c #130455",
"]+	c #23494A",
"^+	c #160060",
"/+	c #1B2956",
"(+	c #212D5A",
"_+	c #181D65",
":+	c #1F2E64",
"<+	c #140078",
"[+	c #17007C",
"}+	c #63FE2E",
"|+	c #44FE04",
"1+	c #96FE72",
"2+	c #FDFFFD",
"3+	c #C9C3CC",
"4+	c #B7B6B7",
"5+	c #505156",
"6+	c #430000",
"7+	c #2B0003",
"8+	c #08011B",
"9+	c #06001C",
"0+	c #000010",
"a+	c #1B1837",
"b+	c #F4F5F4",
"c+	c #564D7C",
"d+	c #10004F",
"e+	c #0E0051",
"f+	c #100055",
"g+	c #0F0D56",
"h+	c #0F0061",
"i+	c #233852",
"j+	c #191F5D",
"k+	c #1E315E",
"l+	c #1C2366",
"m+	c #0F007B",
"n+	c #1D196F",
"o+	c #408553",
"p+	c #63FD2E",
"q+	c #54FD1B",
"r+	c #3BFD00",
"s+	c #91FA6E",
"t+	c #C0BAC2",
"u+	c #060810",
"v+	c #000002",
"w+	c #890003",
"x+	c #62000A",
"y+	c #000017",
"z+	c #050018",
"A+	c #09031F",
"B+	c #33304A",
"C+	c #C1BFC8",
"D+	c #8885A4",
"E+	c #000038",
"F+	c #0C004C",
"G+	c #0F004F",
"H+	c #0E0053",
"I+	c #100057",
"J+	c #0B005E",
"K+	c #212A55",
"L+	c #120F60",
"M+	c #1B0F61",
"N+	c #2B5050",
"O+	c #0F0071",
"P+	c #110077",
"Q+	c #263F61",
"R+	c #2F6156",
"S+	c #346162",
"T+	c #56FD1F",
"U+	c #90FD6A",
"V+	c #F6F8F6",
"W+	c #6B6C6B",
"X+	c #0D0A0D",
"Y+	c #100F16",
"Z+	c #000003",
"`+	c #000004",
" @	c #040017",
".@	c #010016",
"+@	c #020019",
"@@	c #82828F",
"#@	c #9B98B3",
"$@	c #070041",
"%@	c #090047",
"&@	c #0E0052",
"*@	c #100056",
"=@	c #100B57",
"-@	c #171659",
";@	c #120062",
">@	c #264D50",
",@	c #20235E",
"'@	c #0E0070",
")@	c #16096E",
"!@	c #2F5E54",
"~@	c #15007C",
"{@	c #336E54",
"]@	c #6AFF27",
"^@	c #5AFF1E",
"/@	c #54FF1A",
"(@	c #43FF05",
"_@	c #96FD72",
":@	c #FBFEFB",
"<@	c #FFFAFF",
"[@	c #929392",
"}@	c #747171",
"|@	c #EFEBEB",
"1@	c #F8FEFD",
"2@	c #C6D8DA",
"3@	c #364A53",
"4@	c #000007",
"5@	c #030017",
"6@	c #050019",
"7@	c #0B0421",
"8@	c #0C0828",
"9@	c #211D3B",
"0@	c #898798",
"a@	c #908AA6",
"b@	c #000035",
"c@	c #0B0046",
"d@	c #0E004D",
"e@	c #0E0050",
"f@	c #0F0054",
"g@	c #100456",
"h@	c #0B005D",
"i@	c #181B51",
"j@	c #25554C",
"k@	c #170069",
"l@	c #12006D",
"m@	c #1F395E",
"n@	c #1F2A66",
"o@	c #0F0080",
"p@	c #316B52",
"q@	c #64FF2C",
"r@	c #62FD2D",
"s@	c #57FF1D",
"t@	c #55FA1C",
"u@	c #4BDD19",
"v@	c #44E30A",
"w@	c #94F771",
"x@	c #FDFEFB",
"y@	c #FFF5F5",
"z@	c #FFD2D1",
"A@	c #E68A8B",
"B@	c #1D111F",
"C@	c #08031B",
"D@	c #312E4A",
"E@	c #09042A",
"F@	c #706D84",
"G@	c #7F7B99",
"H@	c #00002C",
"I@	c #0E0046",
"J@	c #0D004A",
"K@	c #0F004E",
"L@	c #0D0151",
"M@	c #110054",
"N@	c #11005F",
"O@	c #40605F",
"P@	c #1A1061",
"Q@	c #0F0067",
"R@	c #1C0F64",
"S@	c #20385C",
"T@	c #140171",
"U@	c #0F007E",
"V@	c #398A46",
"W@	c #5DFF10",
"X@	c #39A613",
"Y@	c #3AAB14",
"Z@	c #306A01",
"`@	c #332D12",
" #	c #F7F9F5",
".#	c #FEFEFE",
"+#	c #FDFEFE",
"@#	c #FFCCCC",
"##	c #FE5C5C",
"$#	c #FF1C1B",
"%#	c #FF1514",
"&#	c #F03333",
"*#	c #201523",
"=#	c #99989F",
"-#	c #919099",
";#	c #8B8B97",
">#	c #B4B3BC",
",#	c #737082",
"'#	c #58547C",
")#	c #000032",
"!#	c #0D0047",
"~#	c #100050",
"{#	c #000048",
"]#	c #4F4682",
"^#	c #574A8E",
"/#	c #0F005C",
"(#	c #0D0063",
"_#	c #232F5A",
":#	c #140969",
"<#	c #160572",
"[#	c #47BF32",
"}#	c #5DFF13",
"|#	c #59FE21",
"1#	c #58FF1E",
"2#	c #4FF01B",
"3#	c #429F13",
"4#	c #170000",
"5#	c #502D39",
"6#	c #F6F7F6",
"7#	c #F2F2F2",
"8#	c #FEFCFC",
"9#	c #FE8989",
"0#	c #FE2828",
"a#	c #FE4949",
"b#	c #FF9898",
"c#	c #BA8F90",
"d#	c #2F2831",
"e#	c #000009",
"f#	c #898990",
"g#	c #D4D3DA",
"h#	c #78768B",
"i#	c #4F496D",
"j#	c #4C466B",
"k#	c #50486E",
"l#	c #231B4F",
"m#	c #07003B",
"n#	c #0E0044",
"o#	c #0D0046",
"p#	c #0D004B",
"q#	c #09004B",
"r#	c #1B115C",
"s#	c #5C548A",
"t#	c #181063",
"u#	c #0D005B",
"v#	c #140A5F",
"w#	c #160C63",
"x#	c #180069",
"y#	c #0C0074",
"z#	c #284C56",
"A#	c #59FF19",
"B#	c #55FC1C",
"C#	c #53F31B",
"D#	c #54F41C",
"E#	c #61FF22",
"F#	c #3A720E",
"G#	c #130000",
"H#	c #827475",
"I#	c #FCFFFE",
"J#	c #949595",
"K#	c #D6DDDD",
"L#	c #FFE8E8",
"M#	c #FEBEBE",
"N#	c #FEEEEE",
"O#	c #C5D8DA",
"P#	c #6F8285",
"Q#	c #8B9296",
"R#	c #E8E7E9",
"S#	c #F3F2F5",
"T#	c #545168",
"U#	c #000020",
"V#	c #000021",
"W#	c #00001E",
"X#	c #000028",
"Y#	c #02002F",
"Z#	c #070035",
"`#	c #0C013F",
" $	c #0E0042",
".$	c #0D0045",
"+$	c #0D0048",
"@$	c #080048",
"#$	c #291F64",
"$$	c #34296D",
"%$	c #030050",
"&$	c #10015F",
"*$	c #150060",
"=$	c #100064",
"-$	c #1A1865",
";$	c #50EB23",
">$	c #5BFF15",
",$	c #59FE22",
"'$	c #59FF1E",
")$	c #34560B",
"!$	c #2E3708",
"~$	c #54F01C",
"{$	c #37640C",
"]$	c #73A252",
"^$	c #E0F5D7",
"/$	c #BCAFB3",
"($	c #9E9B9B",
"_$	c #CCCDCD",
":$	c #FEFFFF",
"<$	c #FDFFFF",
"[$	c #EAEAED",
"}$	c #2B2841",
"|$	c #000012",
"1$	c #010022",
"2$	c #06002A",
"3$	c #07002D",
"4$	c #080031",
"5$	c #090034",
"6$	c #0A0037",
"7$	c #0B003B",
"8$	c #0C0040",
"9$	c #0E0043",
"0$	c #130552",
"a$	c #0F0254",
"b$	c #0B015C",
"c$	c #17005F",
"d$	c #0D0065",
"e$	c #180F62",
"f$	c #47B830",
"g$	c #4BD029",
"h$	c #50E324",
"i$	c #54FD1C",
"j$	c #62FE2D",
"k$	c #54FF1C",
"l$	c #3B9C12",
"m$	c #281204",
"n$	c #1D0000",
"o$	c #375C0C",
"p$	c #3A6B0E",
"q$	c #1F0000",
"r$	c #44AD0F",
"s$	c #3B3A17",
"t$	c #37151C",
"u$	c #C6BEBF",
"v$	c #FDFDFD",
"w$	c #3F3B4D",
"x$	c #00000C",
"y$	c #080327",
"z$	c #070026",
"A$	c #08002A",
"B$	c #090030",
"C$	c #090035",
"D$	c #0A0036",
"E$	c #0B0039",
"F$	c #0B003E",
"G$	c #0D0042",
"H$	c #0E0048",
"I$	c #0D0050",
"J$	c #100054",
"K$	c #0F0158",
"L$	c #0E0060",
"M$	c #212955",
"N$	c #35853D",
"O$	c #2A4C52",
"P$	c #202E5D",
"Q$	c #4FDE26",
"R$	c #59FF17",
"S$	c #61FE2D",
"T$	c #66FF2F",
"U$	c #4FE71B",
"V$	c #36A111",
"W$	c #4AB015",
"X$	c #2B2806",
"Y$	c #260903",
"Z$	c #2D2D07",
"`$	c #250402",
" %	c #2B1A07",
".%	c #1C0000",
"+%	c #3C2022",
"@%	c #E5DBE3",
"#%	c #919097",
"$%	c #00000A",
"%%	c #05001E",
"&%	c #050021",
"*%	c #050026",
"=%	c #080029",
"-%	c #08012C",
";%	c #08002E",
">%	c #090033",
",%	c #0B0035",
"'%	c #0A0038",
")%	c #0C003C",
"!%	c #0C0041",
"~%	c #0D0044",
"{%	c #100156",
"]%	c #20444B",
"^%	c #2C514A",
"/%	c #15155D",
"(%	c #2A4A54",
"_%	c #5AFF15",
":%	c #57FF1C",
"<%	c #60F62D",
"[%	c #53F11D",
"}%	c #5CFF1F",
"|%	c #4FD41A",
"1%	c #240202",
"2%	c #210000",
"3%	c #230001",
"4%	c #33460B",
"5%	c #3BAE06",
"6%	c #8FFF68",
"7%	c #FBFFF9",
"8%	c #F4F3F3",
"9%	c #151425",
"0%	c #00000B",
"a%	c #07001B",
"b%	c #03001F",
"c%	c #050024",
"d%	c #070027",
"e%	c #08012B",
"f%	c #0B0036",
"g%	c #0A003A",
"h%	c #0C003F",
"i%	c #0D0049",
"j%	c #0D0051",
"k%	c #120254",
"l%	c #10005F",
"m%	c #110065",
"n%	c #0F0066",
"o%	c #44AE32",
"p%	c #5BFF17",
"q%	c #62FD2F",
"r%	c #63FF2E",
"s%	c #57FF1E",
"t%	c #5BFF1F",
"u%	c #37640D",
"v%	c #200000",
"w%	c #220000",
"x%	c #314309",
"y%	c #5DFF20",
"z%	c #5AFF20",
"A%	c #42FF01",
"B%	c #88FE61",
"C%	c #F6FDF3",
"D%	c #FCFDFC",
"E%	c #FAFAFA",
"F%	c #8C8B91",
"G%	c #000006",
"H%	c #05001D",
"I%	c #040022",
"J%	c #050025",
"K%	c #08002B",
"L%	c #08002F",
"M%	c #0B0038",
"N%	c #0B003C",
"O%	c #0D0041",
"P%	c #0E0054",
"Q%	c #0E0057",
"R%	c #0B005F",
"S%	c #120063",
"T%	c #317640",
"U%	c #5CFF18",
"V%	c #61FC2D",
"W%	c #4EDA18",
"X%	c #271203",
"Y%	c #34540A",
"Z%	c #5CFF20",
"`%	c #57FF1F",
" &	c #46FE07",
".&	c #89FD61",
"+&	c #F6FEF3",
"@&	c #423F49",
"#&	c #020017",
"$&	c #05001A",
"%&	c #07001C",
"&&	c #040020",
"*&	c #08002D",
"=&	c #090135",
"-&	c #0B0037",
";&	c #0C0043",
">&	c #0A0047",
",&	c #09004C",
"'&	c #0C0050",
")&	c #0E0351",
"!&	c #140B53",
"~&	c #1B324E",
"{&	c #3DA832",
"]&	c #5CFF19",
"^&	c #63FF2D",
"/&	c #59FF1F",
"(&	c #35540B",
"_&	c #250502",
":&	c #45A513",
"<&	c #5BFF20",
"[&	c #56FA1D",
"}&	c #3FFD00",
"|&	c #83FF5A",
"1&	c #EEF8EB",
"2&	c #BBBCBB",
"3&	c #0B0914",
"4&	c #000008",
"5&	c #020014",
"6&	c #030018",
"7&	c #07001A",
"8&	c #050023",
"9&	c #060026",
"0&	c #07002C",
"a&	c #09002F",
"b&	c #0A0136",
"c&	c #090039",
"d&	c #07003E",
"e&	c #0F0840",
"f&	c #151C40",
"g&	c #1C333F",
"h&	c #234A3F",
"i&	c #2D683A",
"j&	c #398C33",
"k&	c #2A5F40",
"l&	c #51E722",
"m&	c #429313",
"n&	c #230002",
"o&	c #3C760F",
"p&	c #56FB1E",
"q&	c #36E100",
"r&	c #6BC54C",
"s&	c #89838F",
"t&	c #050010",
"u&	c #040013",
"v&	c #020016",
"w&	c #06001B",
"x&	c #090031",
"y&	c #101435",
"z&	c #214732",
"A&	c #31772E",
"B&	c #3A982C",
"C&	c #3D9F2B",
"D&	c #2F7235",
"E&	c #1C2E45",
"F&	c #080055",
"G&	c #1B254E",
"H&	c #5AD934",
"I&	c #4FA023",
"J&	c #281405",
"K&	c #303F09",
"L&	c #281404",
"M&	c #2D2C07",
"N&	c #4BCA17",
"O&	c #3AAE13",
"P&	c #239100",
"Q&	c #90FF66",
"R&	c #4F5851",
"S&	c #03010F",
"T&	c #050011",
"U&	c #020015",
"V&	c #040023",
"W&	c #07012C",
"X&	c #06002F",
"Y&	c #070034",
"Z&	c #111534",
"`&	c #1D3831",
" *	c #192D36",
".*	c #13153E",
"+*	c #080047",
"@*	c #05004C",
"#*	c #080051",
"$*	c #19224A",
"%*	c #48A73F",
"&*	c #240003",
"**	c #37600C",
"=*	c #50DF19",
"-*	c #2E3307",
";*	c #250903",
">*	c #4BB016",
",*	c #37AC13",
"'*	c #246A0B",
")*	c #42D10F",
"!*	c #17370B",
"~*	c #00010D",
"{*	c #030012",
"]*	c #050020",
"^*	c #080028",
"/*	c #0C0F2D",
"(*	c #0C0C31",
"_*	c #080036",
":*	c #050039",
"<*	c #08003C",
"[*	c #120C41",
"}*	c #111042",
"|*	c #2A6139",
"1*	c #58D634",
"2*	c #2A2006",
"3*	c #5EFF22",
"4*	c #303D08",
"5*	c #2C1D05",
"6*	c #2E7B0E",
"7*	c #226C0B",
"8*	c #349A11",
"9*	c #163807",
"0*	c #03000F",
"a*	c #010014",
"b*	c #030019",
"c*	c #04001E",
"d*	c #070126",
"e*	c #255827",
"f*	c #1F4A2B",
"g*	c #0D0F32",
"h*	c #0D0935",
"i*	c #0F1138",
"j*	c #172B38",
"k*	c #204437",
"l*	c #4ACB24",
"m*	c #5CFF21",
"n*	c #54F61B",
"o*	c #280D03",
"p*	c #2D650C",
"q*	c #22710C",
"r*	c #3BAE15",
"s*	c #1D4F0C",
"t*	c #01010D",
"u*	c #030013",
"v*	c #020018",
"w*	c #050120",
"x*	c #020025",
"y*	c #030029",
"z*	c #05002C",
"A*	c #07002F",
"B*	c #0A0431",
"C*	c #0B0535",
"D*	c #090038",
"E*	c #0D0A3A",
"F*	c #296534",
"G*	c #57D633",
"H*	c #250002",
"I*	c #220001",
"J*	c #65FF2F",
"K*	c #58FF1F",
"L*	c #55FB1B",
"M*	c #4BC517",
"N*	c #4EDE1A",
"O*	c #3FBB15",
"P*	c #5CFF1E",
"Q*	c #297410",
"R*	c #01000A",
"S*	c #00010E",
"T*	c #03000E",
"U*	c #040012",
"V*	c #04001B",
"W*	c #03001E",
"X*	c #173822",
"Y*	c #328222",
"Z*	c #338923",
"`*	c #286426",
" =	c #214A2B",
".=	c #224B2D",
"+=	c #2D742A",
"@=	c #44BE25",
"#=	c #67FF2B",
"$=	c #62FC2F",
"%=	c #5AFF1F",
"&=	c #5DFF1E",
"*=	c #49D419",
"==	c #0A1506",
"-=	c #000005",
";=	c #00000D",
">=	c #0F2810",
",=	c #090C11",
"'=	c #0E2518",
")=	c #101F1B",
"!=	c #00001C",
"~=	c #050221",
"{=	c #0D1624",
"]=	c #204E24",
"^=	c #43BB20",
"/=	c #5CFF1C",
"(=	c #59FF1B",
"_=	c #5EFF1C",
":=	c #54F91C",
"<=	c #5FFF1F",
"[=	c #369E14",
"}=	c #040505",
"|=	c #102E11",
"1=	c #215514",
"2=	c #070D15",
"3=	c #338C1C",
"4=	c #22571C",
"5=	c #0B121F",
"6=	c #040024",
"7=	c #070327",
"8=	c #256026",
"9=	c #5BFF1B",
"0=	c #59FF1D",
"a=	c #64FF2D",
"b=	c #5EFF20",
"c=	c #3FB616",
"d=	c #215E0F",
"e=	c #174211",
"f=	c #4CD71B",
"g=	c #2F8117",
"h=	c #081114",
"i=	c #2C7E1A",
"j=	c #62FF1D",
"k=	c #49D41D",
"l=	c #3CAC1F",
"m=	c #44C31F",
"n=	c #58FF1D",
"o=	c #62FD2E",
"p=	c #5DFF1F",
"q=	c #52F01C",
"r=	c #5CFF1D",
"s=	c #4FE51C",
"t=	c #4EE41C",
"u=	c #54F71D",
"v=	c #5DFF1C",
"w=	c #59FF1A",
"x=	c #63FC2E",
"y=	c #5AFF1D",
"z=	c #55FF1C",
"A=	c #55FF1D",
"B=	c #56FE1B",
"C=	c #64FD2F",
"D=	c #54FE1C",
"E=	c #5BFE25",
"F=	c #5CFD25",
"                                                . +                                                 ",
"                                            @ # $ % # &                                             ",
"                                          * # % = = $ - ;                                           ",
"                                        * # $ = % = % > = *                                         ",
"                                      , ' ) ! = % ~ % % ) - ,                                       ",
"                                    * ' $ ! % $ = = $ % { $ ~ @                                     ",
"                                  & # $ { = $ % = { $ $ ] = $ = ^                                   ",
"                                ; - $ % = { ] / ( ( _ { ! / = ) :   < [                             ",
"                              } | $ % % = { $ ' 1 2 ' { { / = % 3 4 5 6 7     8                     ",
"                            } - _ = = $ = = 9 0 a b c d { / % ! e f g h 6 i   j k                   ",
"                          } # $ % % l $ ' = m n o p q r = ' s = t u v w 6 x y z A                   ",
"                        B - $ = C = = % % D E F G H I J K L { ] { - M N h 6 O P j k                 ",
"                      B - $ % ] { = { d Q R S H T T U p V W X Y Y Z `  ...+.@.#.$.%.                ",
"                    &.~ = = = = = ' % m *.=.U -.G G G G ;.>.,.'.).!.~.{.].^./.(._.j                 ",
"                  :.' $ = = = l = = <.E [.H }.G |.1.2.G 3.4.5.6.7.8.9.0.a.b.c.d.e.f.g.h.            ",
"                :.' $ = = = = # $ r a i.H |.G j.k.l.m.n.o.p.q.r.s.t.u.v.w.x.y.z.A.B.C.D.            ",
"              E.' = = = = # ' $ F.G.o G G G G H.I.J.K.L.M.N.O.P.Q.R.S.T.U.V.W.X.Y.Z.`. +            ",
"            .+' % = = ' = ' ~ Q ++G G @+#+$+%+&+*+=+-+;+>+,+'+)+!+~+{+]+^+/+(+x _+:+<+[+            ",
"          }+= $ = = ] = - _ |+1+2+3+4+5+I.6+7+;+8+9+0+a+b+G c+O.d+e+f+g+h+i+j+h k+l+m+n+o+          ",
"        p+~ ) = = ! { = q+r+s+G t+I.I.u+v+w+x+y+z+A+B+C+G G D+E+F+G+H+I+J+K+L+M+N+O+P+Q+R+S+        ",
"      :.# $ = = ~ = T+_ m U+V+G W+I.X+Y+Z+`+;+ @.@+@@@G G G #@$@%@G+&@*@=@-@;@>@,@'@)@!@~@{@]@      ",
"    }+# 9 = _ l ^@- /@(@_@:@<@G [@}@|@1@2@3@4@5@6@7@8@9@0@G a@b@c@d@e@f@g@h@i@j@k@l@m@n@o@p@Y q@    ",
"  r@| $ = ~ s@t@u@> v@w@x@U -.}.G G G y@z@A@B@L.C@4@4@D@E@F@G@H@I@J@K@L@M@N@O@P@Q@R@S@T@U@V@W@s@}+  ",
"  ' % { # s@s@X@Y@Z@`@ #G G .#+#G @###$#%#&#*#4@=#-#;#G >#,#'#)#I@!#d@~#{#]#^#/#(#_#:#O <#[#}#] '   ",
"|#$ = ! ] 1#1#2#3#4#5#G 6#7#G 8#9#0#a#b#c#d#e#f#G g#h#i#j#k#l#m#n#o#p#q#r#s#t#u#v#w#x#y#z#A#3 l $ . ",
"+ _ = B#s@C#D#E#F#G#H#G I#J#K#L#M#N#G O#P#Q#R#S#T#U#V#W#X#Y#Z#`# $.$+$@$#$$$%$&$*$=$h -$;$>$t ! ) ,$",
"  # _ 1#'$)$!$~${$4#]$^$/$($_$G :$:$<$G G G [$}$|$1$2$3$4$5$6$7$8$9$o#p#0$a$M@b$c$d$e$f$g$h$3 i$=   ",
"  j$1#k$l$m$n$o$p$q$r$s$n$t$u$G G .#.#v$G v$w$x$y$z$A$3$B$C$D$E$F$G$.$H$d@I$J$K$L$M$N$O$P$Q$R$# S$  ",
"    T$U$V$W$X$Y$Z$`$ %n$.%+%@%G .#.#.#.#G #%$%%%&%*%=%-%;%>%,%'%)%!%~%o#d@G+~+{%]%^%/%'@(%_%:%j$    ",
"      <%[%}%|%1%2%3%2%4%5%6%7%U -.v$v$G 8%9%0%a%b%c%d%e%3$B$C$f%g%h%G$.$i%K@j%k%=@l%m%n%o%p%q%      ",
"        r%s%t%u%v%w%x%y%z%A%B%C%H D%E%G F%G%;+a%H%I%J%=%K%L%>%D$M%N%O%~%!#d@G+P%Q%R%S%T%U%V%        ",
"          j$z%W%X%2%Y%Z%`%]  &.&+&G .#G @&I.#&$&%&&&c%d%e%*&4$=&-&g%h%;&>&,&'&)&!&~&{&]&^&          ",
"              /&(&q$_&:&<&`%[&}&|&1&G 2&3&4&5&6&7&H%8&9&=%0&a&>%b&c&d&e&f&g&h&i&j&k&l&              ",
"                m&v%2%n&o&p&<&:%q&r&G s&I.t&u&v&*+w&&&J%d%e%*&x&C$y&z&A&B&C&D&E&F&G&H&              ",
"                I&J&K&L&q$M&N&E#O&P&Q&R&I.S&T&U&6&a%H%V&9&A$W&X&Y&Z&`& *.*+*@*#*$*%*                ",
"                  &***=*-*n$;*>*,*'*)*!*0%~*T&{*#&w&9+]*J%^*K%/*(*_*:*<*8$[*}*|*1*                  ",
"                  2%2*3*_ 4*.%5*6*7*8*9*4&~*0*T&a*b*%&c*8&d*2$e*f*g*h*i*j*k*l*                      ",
"                  3%n&  m*n*x%o*p*q*r*s*`+~*t*t&u*v*w&9+w*x*y*z*A*B*C*D*E*F*G*                      ",
"                  H*I*  J*K*L*M*N*O*P*Q*v+R*S*T*U*U&b*V*W*X*Y*Z*`* =.=+=@=#=                        ",
"                          $=K*%=%='$&=*===-=;=>=,=|$'=)=!=~={=]=^=/=(=_=                            ",
"                            E.' _ l :=<=[=}=G%|=1=|$2=3=4=5=6=7=8=9=0=a=                            ",
"                              p+C $ = = b=c=d=e=f=g=h=i=j=k=l=m=9=n=o=                              ",
"                                }+# ) C t@p=P*q== r=s=t=u=0=v=w=p&x=                                ",
"                                    ' $ = ! s%y=l s@r=y== = z=#                                     ",
"                                    E.' $ = A=s % # = % = B=' E.                                    ",
"                                      E.' i$$ s % l $ % ) ' E.                                      ",
"                                          # $ ! % s % ) '                                           ",
"                                          E.| $ = l $ - E.                                          ",
"                                            C=' D=D=| E.                                            ",
"                                                E=F=                                                "};
