/* XPM */
static char * bluegriffon16_xpm[] = {
"16 16 92 2",
"  	c None",
". 	c #10004C",
"+ 	c #110050",
"@ 	c #120059",
"# 	c #10004A",
"$ 	c #11004E",
"% 	c #110053",
"& 	c #110057",
"* 	c #12005B",
"= 	c #05001A",
"- 	c #06001D",
"; 	c #060021",
"> 	c #070024",
", 	c #090028",
"' 	c #0F0049",
") 	c #110051",
"! 	c #110056",
"~ 	c #050019",
"{ 	c #070025",
"] 	c #11004F",
"^ 	c #110054",
"/ 	c #03000B",
"( 	c #2A000D",
"_ 	c #2F0011",
": 	c #050018",
"< 	c #0F0048",
"[ 	c #110052",
"} 	c #110055",
"| 	c #000004",
"1 	c #020008",
"2 	c #04000C",
"3 	c #31000D",
"4 	c #40000F",
"5 	c #070021",
"6 	c #0E0046",
"7 	c #10004B",
"8 	c #000003",
"9 	c #030010",
"0 	c #030014",
"a 	c #0D0044",
"b 	c #10004D",
"c 	c #0D0014",
"d 	c #09002A",
"e 	c #0C0042",
"f 	c #FF0000",
"g 	c #2C0011",
"h 	c #040018",
"i 	c #0A002E",
"j 	c #0C0040",
"k 	c #040010",
"l 	c #040014",
"m 	c #0A002C",
"n 	c #090031",
"o 	c #0A0035",
"p 	c #0C0039",
"q 	c #0D003D",
"r 	c #0E0047",
"s 	c #080026",
"t 	c #09002B",
"u 	c #09002F",
"v 	c #090033",
"w 	c #0C0037",
"x 	c #0D003C",
"y 	c #080025",
"z 	c #090029",
"A 	c #09002D",
"B 	c #090032",
"C 	c #0B0035",
"D 	c #0C003A",
"E 	c #0D003E",
"F 	c #0D0042",
"G 	c #06001C",
"H 	c #06001F",
"I 	c #070023",
"J 	c #080027",
"K 	c #090030",
"L 	c #0A0033",
"M 	c #0C0038",
"N 	c #0D0045",
"O 	c #040017",
"P 	c #09002E",
"Q 	c #0B0036",
"R 	c #0D0043",
"S 	c #060020",
"T 	c #09002C",
"U 	c #0A0034",
"V 	c #0C0041",
"W 	c #030012",
"X 	c #040016",
"Y 	c #06001B",
"Z 	c #06001E",
"` 	c #0D003F",
"                      . +   @   ",
"                      # $ % & * ",
"            = - ; > , ' . ) ! @ ",
"            ~ - ; {     # ] ^ & ",
"      / ( _ : - ; {     < . [ } ",
"  | 1 2 3 4 : - 5       6 7 ] ^ ",
"  8   / 9 0 : - ;       a < b [ ",
"          c : - ; { d   e 6 7 + ",
"    f f f g h   5     i j a ' b ",
"  f     k l     m n o p q e r . ",
"              s t u v w x j a # ",
"            ; y z A B C D E F r ",
"          G H I J t K L M x j N ",
"        O = - ; y z P B Q D E R ",
"        l h G S I J T K U M x V ",
"        W X Y Z 5 y d P B Q D ` "};
