/* XPM */
static char * bluegriffon16_xpm[] = {
"16 16 135 2",
"  	c None",
". 	c #59FD22",
"+ 	c #5AFE21",
"@ 	c #59FE20",
"# 	c #55FE1C",
"$ 	c #58FE20",
"% 	c #59FD20",
"& 	c #56FE1D",
"* 	c #4DFD10",
"= 	c #56FF1D",
"- 	c #5BFF1E",
"; 	c #0E0072",
"> 	c #43FE03",
", 	c #C3FFAE",
"' 	c #C3FFAF",
") 	c #4CFF06",
"! 	c #61FF11",
"~ 	c #1D1F5F",
"{ 	c #140078",
"] 	c #59FE21",
"^ 	c #57FE1D",
"/ 	c #42FE04",
"( 	c #C2FFAB",
"_ 	c #FFFFFF",
": 	c #F8F2F9",
"< 	c #48516A",
"[ 	c #235242",
"} 	c #2A564C",
"| 	c #1A1867",
"1 	c #15007D",
"2 	c #5AFE22",
"3 	c #57FE1E",
"4 	c #42FD03",
"5 	c #D2FFBC",
"6 	c #C0BAC7",
"7 	c #343344",
"8 	c #00000F",
"9 	c #8F8AA9",
"0 	c #07004E",
"a 	c #191A57",
"b 	c #191564",
"c 	c #1C196F",
"d 	c #57FF1D",
"e 	c #45FF07",
"f 	c #CCFFB6",
"g 	c #554F5B",
"h 	c #32282F",
"i 	c #060008",
"j 	c #514F64",
"k 	c #E9E8EF",
"l 	c #00003F",
"m 	c #0E0058",
"n 	c #1F2A55",
"o 	c #15096D",
"p 	c #336957",
"q 	c #5AFD22",
"r 	c #45D512",
"s 	c #91A67A",
"t 	c #FFC2C1",
"u 	c #FF8281",
"v 	c #303543",
"w 	c #747284",
"x 	c #4D496B",
"y 	c #070041",
"z 	c #110154",
"A 	c #2C226F",
"B 	c #150868",
"C 	c #347D49",
"D 	c #5CFF1F",
"E 	c #5BFF22",
"F 	c #43A313",
"G 	c #336207",
"H 	c #7F7C68",
"I 	c #A99DA4",
"J 	c #EBF6F5",
"K 	c #69667A",
"L 	c #00001C",
"M 	c #040031",
"N 	c #0D0041",
"O 	c #160952",
"P 	c #0B0058",
"Q 	c #1D1F5C",
"R 	c #4CD928",
"S 	c #5AFF20",
"T 	c #58FF21",
"U 	c #2A2105",
"V 	c #253300",
"W 	c #A2E388",
"X 	c #C2C2C5",
"Y 	c #000009",
"Z 	c #070028",
"` 	c #080031",
" .	c #0B003B",
"..	c #0C0048",
"+.	c #0F0053",
"@.	c #100061",
"#.	c #55E729",
"$.	c #48A518",
"%.	c #2B2506",
"&.	c #4BFF0A",
"*.	c #C1FFAA",
"=.	c #4E4757",
"-.	c #010014",
";.	c #050021",
">.	c #08002C",
",.	c #0B0437",
"'.	c #1F3D39",
").	c #1A2A45",
"!.	c #3D9B36",
"~.	c #396A0E",
"{.	c #281104",
"].	c #2B9A05",
"^.	c #07110A",
"/.	c #030013",
"(.	c #05001D",
"_.	c #050028",
":.	c #0F1231",
"<.	c #09003D",
"[.	c #2B5E3C",
"}.	c #5AFF22",
"|.	c #51E91A",
"1.	c #173C0A",
"2.	c #02000E",
"3.	c #070817",
"4.	c #070622",
"5.	c #296926",
"6.	c #43B329",
"7.	c #59FF21",
"8.	c #58FF1D",
"9.	c #40BA17",
"0.	c #39A41A",
"a.	c #52F31D",
"b.	c #59FF22",
"c.	c #57FF1C",
"d.	c #5AFF21",
"              . +               ",
"            @ # # $             ",
"          % & * * = - ;         ",
"        @ & > , ' ) ! ~ {       ",
"      ] ^ / ( _ : < [ } | 1     ",
"    2 3 4 5 6 7 8 9 0 a b c     ",
"  ] d e f g h i j k l m n o p   ",
"q d r s _ t u v w x y z A B C D ",
"E F G H I _ J K L M N O P Q R S ",
"  T U V W _ X Y Z `  ...+.@.#.  ",
"    $.%.&.*.=.-.;.>.,.'.).!.    ",
"      ~.{.].^./.(._.:.<.[.      ",
"        }.|.1.2.3.4.5.6.        ",
"          7.8.9.0.a.]           ",
"            b.c.c.d.            ",
"              . 2               "};
