/* XPM */
static char * bluegriffon50_xpm[] = {
"50 50 168 2",
"  	c None",
". 	c #16006A",
"+ 	c #16006D",
"@ 	c #150068",
"# 	c #16006B",
"$ 	c #16006F",
"% 	c #150067",
"& 	c #170071",
"* 	c #190078",
"= 	c #19007C",
"- 	c #150066",
"; 	c #150069",
"> 	c #16006C",
", 	c #180077",
"' 	c #19007A",
") 	c #1A007E",
"! 	c #16006E",
"~ 	c #180076",
"{ 	c #180074",
"] 	c #190077",
"^ 	c #19007B",
"/ 	c #150065",
"( 	c #170073",
"_ 	c #190079",
": 	c #10004B",
"< 	c #10004E",
"[ 	c #120058",
"} 	c #12005B",
"| 	c #170070",
"1 	c #0F004A",
"2 	c #10004D",
"3 	c #110050",
"4 	c #120057",
"5 	c #12005A",
"6 	c #150064",
"7 	c #17006F",
"8 	c #170072",
"9 	c #19007E",
"0 	c #1A0080",
"a 	c #05001B",
"b 	c #06001E",
"c 	c #070021",
"d 	c #0F0049",
"e 	c #10004C",
"f 	c #10004F",
"g 	c #110052",
"h 	c #110055",
"i 	c #120059",
"j 	c #140063",
"k 	c #1A007F",
"l 	c #050019",
"m 	c #06001D",
"n 	c #070025",
"o 	c #080027",
"p 	c #0E0048",
"q 	c #110051",
"r 	c #110054",
"s 	c #13005F",
"t 	c #140061",
"u 	c #19007D",
"v 	c #050018",
"w 	c #070024",
"x 	c #13005C",
"y 	c #150063",
"z 	c #180075",
"A 	c #03000C",
"B 	c #03000F",
"C 	c #030012",
"D 	c #040015",
"E 	c #070027",
"F 	c #0E0047",
"G 	c #13005E",
"H 	c #190076",
"I 	c #010003",
"J 	c #020006",
"K 	c #02000A",
"L 	c #39000C",
"M 	c #900008",
"N 	c #320011",
"O 	c #0E0046",
"P 	c #110053",
"Q 	c #110056",
"R 	c #12005C",
"S 	c #020009",
"T 	c #1D000D",
"U 	c #54000C",
"V 	c #200013",
"W 	c #0F004B",
"X 	c #000001",
"Y 	c #100050",
"Z 	c #13005D",
"` 	c #130060",
" .	c #0E0044",
"..	c #170074",
"+.	c #3F000E",
"@.	c #09002B",
"#.	c #0D0041",
"$.	c #0E0043",
"%.	c #120056",
"&.	c #240000",
"*.	c #FF0000",
"=.	c #D10004",
"-.	c #0A002E",
";.	c #0D003F",
">.	c #0D0042",
",.	c #0E0045",
"'.	c #140062",
").	c #160069",
"!.	c #210010",
"~.	c #0D003D",
"{.	c #0D0040",
"].	c #130061",
"^.	c #08002A",
"/.	c #09002D",
"(.	c #0A002F",
"_.	c #0B0033",
":.	c #0B0036",
"<.	c #0C0039",
"[.	c #0C003C",
"}.	c #080028",
"|.	c #09002C",
"1.	c #0A0031",
"2.	c #0B0034",
"3.	c #0B0037",
"4.	c #0C003B",
"5.	c #0C003D",
"6.	c #070022",
"7.	c #0A0030",
"8.	c #060020",
"9.	c #070023",
"0.	c #070026",
"a.	c #080029",
"b.	c #0B0035",
"c.	c #0D003E",
"d.	c #05001C",
"e.	c #06001F",
"f.	c #0A002D",
"g.	c #080026",
"h.	c #0A0032",
"i.	c #0B0038",
"j.	c #050017",
"k.	c #05001A",
"l.	c #06001C",
"m.	c #0C003A",
"n.	c #0D0043",
"o.	c #12005D",
"p.	c #040013",
"q.	c #040016",
"r.	c #060021",
"s.	c #040011",
"t.	c #040014",
"u.	c #03000D",
"v.	c #030010",
"w.	c #0B0032",
"x.	c #02000C",
"y.	c #040012",
"z.	c #02000B",
"A.	c #03000E",
"B.	c #020008",
"C.	c #010006",
"D.	c #030011",
"E.	c #040017",
"F.	c #020007",
"G.	c #070020",
"H.	c #060022",
"I.	c #08002B",
"J.	c #010005",
"K.	c #010007",
"                                                                                                    ",
"                                                                                                    ",
"                                                                                                    ",
"                                                                                                    ",
"                                                                        . +                         ",
"                                                                        @ # $                       ",
"                                                                        % . + &   * =               ",
"                                                                        - ; > $   , ' )             ",
"                                                                          % . ! & ~ * =             ",
"                                                                          - ; > $ { ] ^             ",
"                                                                          / % # ! ( ~ _ =           ",
"                                                            : <     [ }     - ; > | { ] '           ",
"                                                            1 2 3   4 5     6 @ # 7 8 ~   9 0       ",
"                                                a b c       d e f g h i     j - ; + | {   = k       ",
"                                              l a m c n o   p 1 2 q r 4 5 s t 6   # $ ( ~ ' u       ",
"                                              v a b c w o     d e f g h [ x s y   . + | z * =       ",
"                                      A B C D v a b c w E     F 1 < q r 4 } G t - @ # | ( H '       ",
"                                I J K A L M N v a b c w       O d e f P Q i R s j % . ! & z *       ",
"                                I J S A T U V v a b c           p W < q r [ } G t /   > $ ( ~ '     ",
"                              X I J S A B C D v a b c           O d 2 Y P Q 5 Z ` y @ . ! &   _ =   ",
"                                I         C D v a b c w o        .p W < q h [ } s   - ; > $ .., '   ",
"                                          +.D v a b c w o @.  #.$.F d 2 Y P %.5 x t 6 % # ! 8 ~     ",
"                &.                  *.*.*.=.D v a b c     @.-.;.>.,.p : < g h [   s '.- ).+ | {     ",
"              &.&.              *.*.*.*.  !.D v               ~.{.$.F 1 2 3 P Q 5 Z ].6 @ # ! 8     ",
"            &.&.&.            *.        B C D     ^./.(._.:.<.[.;.>.,.p W f g h i R s j - . +       ",
"            &.&.                                n }.|.-.1.2.3.4.5.#. .F 1 2 q r 4 5 G t / @ #       ",
"    &.&.    &.&.                              6.n o ^./.7._.:.<.[.;.>.O d e f g h i R s j -         ",
"    &.&.&.  &.&.  &.&.&.&.                  m 8.9.0.a.|.(.1.b.3.4.c.#. .F 1 2 q r 4 } G t   @ #     ",
"      &.&.&.&.&.&.&.&.&.                  l d.e.6.n o ^.f.7._.:.<.[.;.>.O d e f P Q i   ` j % .     ",
"        &.&.&.&.&.&.                      v a m 8.w g.a.|.(.h.b.i.4.c.#. .p W < q r 4 } G './       ",
"          &.&.&.&.                      D j.k.l.e.6.n }.@.-.7.2.:.m.5.{.n.O d e 3 P %.5 o.` 6       ",
"          &.&.&.                        p.q.v a b r.w o a./.(.h.b.i.4.c.#.,.p : < g h [ } G         ",
"            &.&.&.                    B s.t.j.k.l.e.9.n }.@.-.7.2.3.m.5.{.n.O d 2 Y P 4             ",
"            &.&.&.                    u.v.p.q.l a b c w o a./.(.w.b.i.[.;.>.,.p       h [           ",
"            &.&.&.&.&.                x.B y.D j.k.m 8.9.n }.@.-.1.2.3.m.        1 2 Y P             ",
"              &.&.&.&.&.              z.A.v.p.q.l a b c w o ^./.7._.:.<.[.;.>.,.p e f g             ",
"              &.    &.&.&.&.        B.K A B y.D v k.m 8.9.n }.|.-.1.2.3.m.5.#. .F 1                 ",
"              &.&.    &.&.&.        C.S z.A.D.t.E.l d.b 6.w o ^./.7._.:.<.[.;.>.                    ",
"            &.&.&.      &.&.&.        F.K u.B y.D v k.m G.9.0.a.|.-.1.b.3.4.c.#.                    ",
"              &.&.          &.        C.S x.A.s.t.E.l d.e.H.n }.I.-.7._.:.<.[.                      ",
"                &.                    J.B.K u.B y.q.v a m 8.9.                                      ",
"                                      J.K.S A A.s.t.j.k.l.e.6.n }.                                  ",
"                                        C.B.K u.  p.q.v   b c w 0.a.                                ",
"                                            K x.    D j.                                            ",
"                                                                                                    ",
"                                                                                                    ",
"                                                                                                    ",
"                                                                                                    ",
"                                                                                                    ",
"                                                                                                    "};
