<?xml version="1.0" encoding="utf-8"?>
<!-- Generator: Adobe Illustrator 19.1.1, SVG Export Plug-In . SVG Version: 6.00 Build 0)  -->
<svg version="1.1" id="_x31_0" xmlns="http://www.w3.org/2000/svg" xmlns:xlink="http://www.w3.org/1999/xlink" x="0px" y="0px"
	 viewBox="0 0 512 512" xml:space="preserve">
<style type="text/css">
	.st0{fill:#D0D0D0;}
</style>
<g>
	<path class="st0" d="M490.569,0L137.35,28.019v263.203l-0.039,61.813c-7.777-1.848-15.801-2.778-23.973-2.778
		c-50.683,0-91.918,36.282-91.918,80.875c0,44.59,41.234,80.867,91.918,80.867c50.684,0,91.922-36.278,91.922-80.867V114.114
		l201.394-15.692l16.004-1.234v164.297l-0.039,39.153c-7.774-1.852-15.797-2.782-23.973-2.782
		c-50.683,0-91.918,36.274-91.918,80.867c0,44.594,41.234,80.875,91.918,80.875c50.688,0,91.922-36.281,91.922-80.875V28.121
		L490.58,0.16h-0.011V0z M95.291,393.297c-2.797,3.551-5.488,7.266-8.054,11.129c-6.833,10.367-12.298,21.141-16.41,32
		c-2.555,6.75-12.618,6.09-14.176-0.953c-0.664-2.992-1.008-6.066-1.008-9.203c0-18.722,12.168-35.187,30.352-44.211
		C93.123,378.519,100.221,387.047,95.291,393.297z M384.576,340.946c-2.801,3.554-5.492,7.266-8.054,11.129
		c-6.836,10.367-12.301,21.144-16.414,32c-2.554,6.75-12.617,6.094-14.175-0.954c-0.661-2.988-1.008-6.062-1.008-9.203
		c0-18.722,12.168-35.183,30.351-44.21C382.404,326.168,389.502,334.695,384.576,340.946z"/>
</g>
</svg>
