<?xml version="1.0" encoding="utf-8"?>
<!-- Generator: Adobe Illustrator 18.0.0, SVG Export Plug-In . SVG Version: 6.00 Build 0)  -->
<!DOCTYPE svg PUBLIC "-//W3C//DTD SVG 1.1//EN" "http://www.w3.org/Graphics/SVG/1.1/DTD/svg11.dtd">
<svg version="1.1" id="_x31_0" xmlns="http://www.w3.org/2000/svg" xmlns:xlink="http://www.w3.org/1999/xlink" x="0px" y="0px"
	 viewBox="0 0 512 512" xml:space="preserve">
<style type="text/css">
	.st0{fill:#D0D0D0;}
</style>
<g>
	<path class="st0" d="M0,61.676v388.649h512V61.676H0z M40.554,409.769V102.23h430.891v307.539H40.554z"/>
	<path class="st0" d="M324.211,186.695L225.89,311.296c-5.515,6.926-16.718,6.762-21.949-0.316l-46.574-63.039
		c-5.344-7.242-16.828-7.242-22.176,0l-73.808,99.867v40.054h389.238v-68.48L345.934,186.695
		C340.531,179.879,329.614,179.879,324.211,186.695z"/>
	<path class="st0" d="M200.238,204.324c20.957,0,37.945-16.993,37.945-37.946c0-20.961-16.988-37.95-37.945-37.95
		s-37.946,16.989-37.946,37.95C162.293,187.332,179.282,204.324,200.238,204.324z"/>
</g>
</svg>
