<?xml version="1.0" encoding="utf-8"?>
<!-- Generator: Adobe Illustrator 18.0.0, SVG Export Plug-In . SVG Version: 6.00 Build 0)  -->
<!DOCTYPE svg PUBLIC "-//W3C//DTD SVG 1.1//EN" "http://www.w3.org/Graphics/SVG/1.1/DTD/svg11.dtd">
<svg version="1.1" id="_x31_0" xmlns="http://www.w3.org/2000/svg" xmlns:xlink="http://www.w3.org/1999/xlink" x="0px" y="0px"
	 viewBox="0 0 512 512" xml:space="preserve">
<style type="text/css">
	.st0{fill:#D0D0D0;}
</style>
<g>
	<path class="st0" d="M511.94,261.952L512,220.66c0.003-2.152-0.229-4.246-0.65-6.27c-2.554-13.79-14.382-24.209-28.597-24.191
		l-127.97,0.187c-7.949,0.012-15.152-3.249-20.408-8.531c-5.217-5.388-8.437-12.803-8.425-20.99l0.192-130.945
		c0.02-14.6-10.25-26.737-23.803-29.286c-1.938-0.413-3.945-0.636-6.003-0.633L256,0.06l-40.336-0.058
		c-2.058-0.003-4.065,0.22-6.003,0.633c-13.553,2.55-23.823,14.686-23.802,29.286l0.19,130.945
		c0.012,8.186-3.208,15.601-8.423,20.99c-5.258,5.282-12.461,8.543-20.41,8.531L29.246,190.2
		c-14.214-0.018-26.042,10.402-28.597,24.191c-0.421,2.023-0.653,4.118-0.65,6.27l0.06,41.291L0,303.244
		c-0.003,2.152,0.229,4.246,0.65,6.269c2.554,13.792,14.382,24.217,28.597,24.195l127.97-0.183c7.95-0.012,15.153,3.247,20.41,8.528
		c5.214,5.387,8.434,12.8,8.422,20.985l-0.176,119.042c-0.02,14.571,10.21,26.692,23.725,29.274c1.952,0.42,3.975,0.648,6.05,0.645
		L256,511.94l40.351,0.058c2.077,0.003,4.098-0.226,6.052-0.645c13.514-2.582,23.743-14.702,23.723-29.274l-0.176-119.042
		c-0.012-8.186,3.208-15.598,8.423-20.986c5.258-5.28,12.461-8.539,20.41-8.527l127.97,0.183
		c14.214,0.022,26.042-10.403,28.597-24.195c0.421-2.022,0.653-4.117,0.65-6.269L511.94,261.952z"/>
</g>
</svg>
