<?xml version="1.0" encoding="utf-8"?>
<!-- Generator: Adobe Illustrator 19.1.1, SVG Export Plug-In . SVG Version: 6.00 Build 0)  -->
<svg version="1.1" id="_x31_0" xmlns="http://www.w3.org/2000/svg" xmlns:xlink="http://www.w3.org/1999/xlink" x="0px" y="0px"
	 viewBox="0 0 512 512" xml:space="preserve">
<style type="text/css">
	.st0{fill:#D0D0D0;}
</style>
<g>
	<path class="st0" d="M460.722,102.32c-2.562-3.519-5.281-6.961-8.082-10.242c-2.558-3.118-5.199-6.078-7.918-9.039
		c-2.801-3.039-5.679-6.078-8.64-9.039C389.844,28.242,326.242,0,256,0C114.641,0,0,114.641,0,256s114.641,256,256,256
		c141.442,0,256-114.641,256-256C512,198.32,492.961,145.121,460.722,102.32z M256,448c-105.84,0-192-86.16-192-192
		S150.16,64,256,64c60.082,0,113.844,27.758,148.961,71.121l-16.297,32.192l-0.023,0.046l-4.481-2.32l-3.359,6.48
		c-1.519,2.801-3.199,6.082-5.039,9.52l35.817,19.183l2.277,1.23l0.004-0.007l0.141,0.074c2.722-6,4.402-9.839,4.481-9.918
		l2.961-6.562l-2.16-1.118l4.867-9.578l2.863-5.438C440.418,195.039,448,224.68,448,256C448,361.84,361.922,448,256,448z
		 M408.957,178l-9.754-5.359l13.758-27.039c2.481,3.438,4.801,7.039,7.039,10.718l-10.778,21.168L408.957,178z"/>
	<path class="st0" d="M225.539,279.961c-27.039,0.961-43.039,4.562-53.84,8.398c-2.558,0.883-4,3.524-3.442,6.164
		c2.801,12.157,10.402,31.118,30.723,36.234c1.519,0.406,3.038,0.805,4.636,1.126c2.641,0.562,5.203-1.039,6.082-3.602
		c3.84-11.36,9.282-22.641,16.16-33.524c1.359-2.156,2.801-4.234,4.238-6.312C232.66,284.758,230.019,279.805,225.539,279.961z"/>
	<path class="st0" d="M361.68,188.718c-16.719,31.68-23.36,42.883-25.836,46.801c-2.961,4.801-2.961,4.801-5.282,4.801
		c-1.281,0-3.039-0.16-5.199-0.64c-16.562-2.962-55.442-9.758-93.922-9.758l-15.52-0.082c-25.519,0-54.961,1.121-80.242,14.878
		c-19.598,10.641-29.758,33.203-24.637,55.282c3.359,14.16,10,28,18.238,38.32C152.722,367.68,189.121,382,240.641,382
		c43.84,0,80.402-14.481,108.641-43.282c22.398-22.718,33.199-48.476,37.839-59.519c8.481-19.918,18.962-43.758,27.442-62.481
		l-52.718-28.16L361.68,188.718z M331.668,277.832c0.848,0.469,1.598,1.054,2.246,1.742c0.254,0.266,0.488,0.542,0.706,0.836
		c0.562,0.758,1.004,1.594,1.317,2.484c0.121,0.363,0.222,0.722,0.301,1.09c0.199,0.918,0.262,1.867,0.168,2.833
		c-0.031,0.363-0.094,0.718-0.172,1.078c-0.106,0.489-0.203,0.981-0.39,1.465c-5.844,15.122-21.203,35.602-40.402,45.282
		c-24,12.32-63.68,18.961-99.918,9.84c-31.363-7.922-40.64-39.122-42.562-56.321c-0.48-4.16,1.762-8,5.52-9.602
		c15.679-7.039,37.762-12.878,82-12.878c36.961,0,72.64,7.281,88.801,11.199c0.503,0.117,0.961,0.308,1.422,0.496
		C331.035,277.516,331.355,277.66,331.668,277.832z"/>
</g>
</svg>
