<!--?xml version="1.0" encoding="utf-8"?-->
<!-- Generator: Adobe Illustrator 18.1.1, SVG Export Plug-In . SVG Version: 6.00 Build 0)  -->

<svg version="1.1" id="_x31_0" xmlns="http://www.w3.org/2000/svg" xmlns:xlink="http://www.w3.org/1999/xlink" x="0px" y="0px" viewBox="0 0 512 512" xml:space="preserve">
<style type="text/css">
	.st0{fill:#d0d0d0;}
</style>
<g>
	<path class="st0" d="M397.297,0H114.703C70.511,0,34.558,35.981,34.558,80.203v351.648c0,44.196,35.953,80.149,80.145,80.149
		H317.09c1.531,0,3.062-0.016,4.535-0.082c85.145-2.332,153.402-70.59,155.734-155.738c0.066-1.481,0.082-3.012,0.082-4.473V80.203
		C477.442,35.981,441.488,0,397.297,0z M332.629,393.742v77.175c-4.11,0.528-8.278,0.879-12.504,0.981
		c-0.973,0.058-2.004,0.058-3.035,0.058H114.703c-22.141,0-40.102-17.906-40.102-40.106V80.203
		c0-22.195,17.961-40.156,40.102-40.156h282.594c22.137,0,40.102,17.961,40.102,40.156v271.504c0,0.973,0,2.004-0.058,2.973
		c-0.102,4.23-0.454,8.398-0.981,12.507h-77.176C344.515,367.187,332.629,379.074,332.629,393.742z"></path>
	<polygon class="st0" points="145.133,225.332 366.867,225.332 366.867,198.484 145.133,198.484 145.133,225.094 145.133,225.172 
		145.133,225.172 	"></polygon>
	<polygon class="st0" points="366.867,273.254 145.133,273.254 145.133,299.855 145.133,299.938 145.133,299.938 145.133,300.098 
		366.867,300.098 	"></polygon>
	<polygon class="st0" points="145.133,150.406 145.133,150.562 366.867,150.562 366.867,123.718 145.133,123.718 145.133,150.324 
		145.133,150.406 	"></polygon>
	<polygon class="st0" points="145.133,348.023 145.133,374.625 145.133,374.703 145.133,374.703 145.133,374.867 264.781,374.867 
		264.781,348.023 	"></polygon>
</g>
</svg>
