<?xml version="1.0" encoding="utf-8"?>
<!-- Generator: Adobe Illustrator 18.1.1, SVG Export Plug-In . SVG Version: 6.00 Build 0)  -->
<!DOCTYPE svg PUBLIC "-//W3C//DTD SVG 1.1//EN" "http://www.w3.org/Graphics/SVG/1.1/DTD/svg11.dtd">
<svg version="1.1" id="_x31_0" xmlns="http://www.w3.org/2000/svg" xmlns:xlink="http://www.w3.org/1999/xlink" x="0px" y="0px"
	 viewBox="0 0 512 512" xml:space="preserve">
<style type="text/css">
	.st0{fill:#D0D0D0;}
</style>
<g>
	<path class="st0" d="M250.939,199.426l-66.086,87.23c-3.164,4.18-0.184,10.184,5.062,10.184h28.191
		c3.508,0,6.352,2.843,6.352,6.351v89.817c0,3.508,2.839,6.351,6.347,6.351h50.391c3.503,0,6.347-2.843,6.347-6.351v-89.817
		c0-3.508,2.844-6.351,6.352-6.351h28.191c5.246,0,8.226-6.004,5.058-10.184l-66.082-87.23
		C258.522,196.07,253.478,196.07,250.939,199.426z"/>
	<path class="st0" d="M488.576,136.156l-63.015-63.015l-6.649-6.649L355.897,3.477C353.67,1.25,350.646,0,347.498,0H31.826
		c-6.559,0-11.879,5.317-11.879,11.875v488.246c0,6.559,5.32,11.879,11.879,11.879h448.351c6.558,0,11.875-5.32,11.875-11.879
		V144.554C492.053,141.406,490.802,138.383,488.576,136.156z M324.123,179.809h89.558c6.562,0,11.879,5.316,11.879,11.874v241.946
		c0,6.558-5.317,11.875-11.879,11.875H98.322c-6.562,0-11.879-5.317-11.879-11.875V78.371c0-6.562,5.317-11.879,11.879-11.879
		h202.046c6.559,0,11.875,5.317,11.875,11.879v89.558C312.244,174.488,317.564,179.809,324.123,179.809z"/>
</g>
</svg>
