<?xml version="1.0" encoding="utf-8"?>
<!-- Generator: Adobe Illustrator 18.1.1, SVG Export Plug-In . SVG Version: 6.00 Build 0)  -->
<!DOCTYPE svg PUBLIC "-//W3C//DTD SVG 1.1//EN" "http://www.w3.org/Graphics/SVG/1.1/DTD/svg11.dtd">
<svg version="1.1" id="_x31_0" xmlns="http://www.w3.org/2000/svg" xmlns:xlink="http://www.w3.org/1999/xlink" x="0px" y="0px"
	 viewBox="0 0 512 512" xml:space="preserve">
<style type="text/css">
	.st0{fill:#D0D0D0;}
</style>
<g>
	<path class="st0" d="M128.656,93.383L17.149,43.211c-7-3.152-14.066-1.355-16.332,3.512l-0.004,0.004
		C0.34,47.746,0,48.856,0,50.136v172.496c0,1.282,0.34,2.387,0.813,3.41l0.004,0.004c2.266,4.871,9.335,6.664,16.339,3.508
		l111.5-50.222c2.118-1.016,3.594-3.454,3.594-5.79V99.176C132.25,96.84,130.774,94.402,128.656,93.383z"/>
	<path class="st0" d="M491.035,17.516h-304.18c-11.531,0-20.965,9.434-20.965,20.965v195.809c0,11.531,9.434,20.965,20.965,20.965
		h304.18c11.531,0,20.965-9.434,20.965-20.965V38.48C512,26.949,502.566,17.516,491.035,17.516z"/>
	<path class="st0" d="M400.121,283.793H277.77l-78.817,160.602c-6.843,13.945-1.035,30.957,12.914,37.801
		c3.922,1.926,8.078,2.75,12.191,2.773c0.055,0.004,0.11,0.02,0.168,0.02c0.305,0,0.606-0.055,0.91-0.062
		c2.218-0.074,4.398-0.387,6.531-0.969c0.149-0.039,0.305-0.062,0.453-0.11c1.118-0.32,2.188-0.734,3.258-1.191
		c0.246-0.106,0.488-0.215,0.73-0.328c3.21-1.481,6.117-3.551,8.606-6.164c0.226-0.234,0.453-0.462,0.668-0.703
		c0.718-0.809,1.394-1.645,2.019-2.543c0.293-0.418,0.543-0.867,0.813-1.305c0.484-0.778,1.042-1.492,1.453-2.328l32.226-65.668
		l28.805-58.527v121.148c0,15.535,12.711,28.246,28.246,28.246c15.535,0,28.246-12.711,28.246-28.246v-64.172l0.07-56.992
		l60.961,124.211c0.41,0.836,0.969,1.55,1.454,2.328c0.27,0.438,0.515,0.886,0.808,1.305c0.63,0.898,1.305,1.734,2.02,2.543
		c0.218,0.242,0.446,0.469,0.668,0.703c2.492,2.617,5.398,4.683,8.61,6.164c0.242,0.113,0.484,0.222,0.73,0.328
		c1.066,0.457,2.14,0.871,3.258,1.191c0.148,0.047,0.301,0.07,0.449,0.11c2.13,0.582,4.313,0.894,6.535,0.969
		c0.305,0.007,0.602,0.062,0.91,0.062l0,0c0.058,0,0.114-0.016,0.168-0.02c4.114-0.023,8.27-0.847,12.191-2.773
		c13.95-6.844,19.758-23.856,12.914-37.801L400.121,283.793z"/>
</g>
</svg>
