<?xml version="1.0" encoding="utf-8"?>
<!-- Generator: Adobe Illustrator 18.1.1, SVG Export Plug-In . SVG Version: 6.00 Build 0)  -->
<!DOCTYPE svg PUBLIC "-//W3C//DTD SVG 1.1//EN" "http://www.w3.org/Graphics/SVG/1.1/DTD/svg11.dtd">
<svg version="1.1" id="_x31_0" xmlns="http://www.w3.org/2000/svg" xmlns:xlink="http://www.w3.org/1999/xlink" x="0px" y="0px"
	 viewBox="0 0 512 512" xml:space="preserve">
<style type="text/css">
	.st0{fill:#D0D0D0;}
</style>
<g>
	<path class="st0" d="M485.286,397.847l0.166,0.072l-8.988-72.382l-4.438-36.36l-0.072,0.053l-0.022-0.174l-58.518,44.209
		l-28.946,21.773l0.08,0.034l-0.14,0.106l22.361,9.46l2.114,0.91c-8,14.901-18.101,28.534-30.21,40.643
		c-15.939,15.938-34.489,28.447-55.141,37.179c-10.838,4.585-22.059,7.86-33.511,10.117c-0.951,0.177-1.876,0.396-2.83,0.558
		V291.389h75.038c1.351,0,2.445-1.094,2.445-2.446v-40.952c0-1.351-1.094-2.442-2.445-2.442h-75.038v-40.511
		c13.566-4.23,25.942-11.166,36.538-20.142l0,0c2.026-1.717,3.992-3.506,5.883-5.37c0.706-0.694,1.354-1.438,2.041-2.15
		c1.182-1.234,2.382-2.457,3.502-3.747c0.729-0.834,1.393-1.721,2.094-2.581c1.038-1.268,2.09-2.525,3.068-3.846
		c0.438-0.588,0.826-1.211,1.253-1.811c1.189-1.679,2.37-3.37,3.464-5.117c0.011-0.022,0.022-0.045,0.038-0.067
		c10.022-16.071,15.841-35.029,15.841-55.326C360.912,47.05,313.861,0,256.03,0S151.148,47.05,151.148,104.882
		c0,22.64,7.264,43.586,19.505,60.744c0.366,0.513,0.702,1.053,1.075,1.558c0.997,1.343,2.068,2.622,3.125,3.917
		c0.69,0.845,1.347,1.717,2.06,2.543c1.019,1.17,2.114,2.271,3.182,3.396c0.803,0.845,1.577,1.724,2.41,2.547
		c1.404,1.381,2.883,2.682,4.362,3.985c0.543,0.475,1.053,0.985,1.604,1.449c10.558,8.916,22.878,15.799,36.375,20.01v40.518
		h-75.015c-1.35,0-2.441,1.09-2.441,2.442v40.952c0,1.351,1.09,2.446,2.441,2.446h74.71h0.306v138.366l-0.026,24.308
		c-12.426-2.253-24.576-5.735-36.293-10.694c-20.651-8.732-39.202-21.241-55.14-37.179c-11.52-11.52-21.162-24.459-28.969-38.519
		c-0.392-0.724-0.845-1.411-1.23-2.143l16.226-6.863l8.142-3.362l-0.068-0.053l0.162-0.072l-58.114-43.903l-29.255-22.202
		l-0.011,0.09l-0.143-0.106l-9.015,72.593l-4.566,36.126l0.083-0.034l-0.023,0.178l25.765-10.898
		c10.879,21.41,24.965,40.911,42.119,58.065c20.972,20.973,45.401,37.443,72.607,48.949C195.279,505.955,225.198,512,256.03,512
		c30.829,0,60.748-6.045,88.931-17.965c27.206-11.506,51.635-27.976,72.608-48.949c17.154-17.154,31.24-36.654,42.118-58.065
		l17.105,7.234l8.505,3.679L485.286,397.847z M256.03,61.563c23.927,0,43.322,19.395,43.322,43.318
		c0,23.927-19.395,43.322-43.322,43.322c-23.923,0-43.318-19.395-43.318-43.322C212.712,80.958,232.107,61.563,256.03,61.563z"/>
</g>
</svg>
