<!--?xml version="1.0" encoding="utf-8"?-->
<!-- Generator: Adobe Illustrator 18.1.1, SVG Export Plug-In . SVG Version: 6.00 Build 0)  -->

<svg version="1.1" id="_x31_0" xmlns="http://www.w3.org/2000/svg" xmlns:xlink="http://www.w3.org/1999/xlink" x="0px" y="0px" viewBox="0 0 512 512" style="width: 256px; height: 256px; opacity: 1;" xml:space="preserve">
<style type="text/css">
	.st0{fill:#374149;}
</style>
<g>
	<path class="st0" d="M353.687,321.035c-0.156-2.023-0.332-4.313-2.117-4.313c-1.352,0-1.828,1.352-2.618,3.59
		c-0.453,1.297-1.023,2.91-1.64,3.934c-1.07,1.762-3.074,3.961-5.016,6.086c-1.566,1.715-3.046,3.351-3.946,4.637
		c-1.66,2.375-1.5,4.664-1.312,7.316c0.09,1.25,0.191,2.692,0.11,4.75c-0.211,5.125-0.266,6.5,1.582,10.282l1.246,2.55l1.371-2.477
		c0.038-0.066,3.906-7.023,9.762-15.41c4.957-7.114,4.113-11.696,3.222-16.547C354.074,324.047,353.813,322.61,353.687,321.035z" style="fill: rgb(255, 255, 255);"></path>
	<path class="st0" d="M251,140.711c0.606,2.527,1.121,3.434,1.637,4.21c0.266,0.398,0.438,0.661,0.531,3.27
		c0.156,4.293-1.442,5.336-2.004,5.821c-1.824,2.519-2.531,4.438-2.11,5.695l0.332,0.969l1.547,0.113
		c1.336,0,4.672-0.297,6.82-3.054c0.582-0.746,1-0.797,2.352-0.859c1.672-0.078,3.961-0.188,7.266-2.422
		c1.168-0.789,2.726-2.054,2.855-3.961c0.133-2.046-1.394-3.445-2.871-4.793c-0.898-0.824-1.832-1.676-2.175-2.492
		c-1.039-2.457-2.727-3.754-4.078-4.797c-0.805-0.622-1.5-1.157-1.902-1.797c-0.406-0.645-0.285-1.516-0.023-3.133
		c0.23-1.387,0.511-3.11,0.363-5.203c-0.199-2.887-1.75-3.195-2.41-3.195c-1.59,0-3.129,1.722-5.504,4.531l-1.367,1.59
		c-2.218,2.508-2.046,3.824-0.816,5.832C249.934,137.84,250.55,138.836,251,140.711z" style="fill: rgb(255, 255, 255);"></path>
	<path class="st0" d="M241.008,144.114c-0.723,2.14-0.754,3.117,0.418,5.43c0.719,1.422,0.707,3.406,0.387,4.14l-0.489,1.333
		l0.95,1.554h0.828c0.363,0,0.886-0.102,1.375-0.656c0.789-0.418,1.461-0.711,2.031-0.958c2.375-1.027,3.726-1.805,3.851-5.808
		c0.035-1.13,0.313-2.223,0.578-3.278c0.43-1.707,0.836-3.321,0.004-4.707c-0.531-0.879-1.422-1.41-2.73-1.625
		c-0.477-0.078-0.922-0.114-1.332-0.114C244.918,139.426,242.313,140.238,241.008,144.114z" style="fill: rgb(255, 255, 255);"></path>
	<path class="st0" d="M222.156,106.481c1.969,5.64,2.633,7.542,5.485,8.43c1.894,0.586,4.594,0.675,6.031,0.675l1.152-0.023
		l0.336-0.222c0.836-0.551,1.926-0.649,3.078-0.754c2.043-0.183,5.133-0.461,5.679-4.714l0.25-1.68
		c0.289-1.801,0.543-3.359-0.336-4.691c-0.926-1.406-2.774-1.977-5.641-2.481c-4.73-0.839-6-1.062-8.07-1.062l-2.582,0.059
		c-1.074,0-2.188-0.5-3.078-0.902c-0.77-0.348-1.378-0.626-2.008-0.626l-1.125,0.164l-0.449,0.703
		c-0.672,1.059-0.36,2.458,0.605,5.192L222.156,106.481z" style="fill: rgb(255, 255, 255);"></path>
	<path class="st0" d="M464.801,107.84c-0.32-0.481-0.641-0.879-1.039-1.359C417.359,42,341.523,0,256,0
		C168.402,0,91.043,44.082,44.883,111.199c-0.641,0.961-1.282,1.84-1.922,2.801c-7.199,10.718-13.602,22-19.039,33.84
		c-0.242,0.562-0.48,1.039-0.718,1.602C8.32,181.922,0,218,0,256c0,141.359,114.641,256,256,256
		c118.883,0,218.801-80.961,247.523-190.879v-0.082c0.317-1.039,0.637-2.078,0.879-3.118c0.879-3.203,1.598-6.402,2.238-9.602
		c0.16-0.718,0.32-1.441,0.402-2.16c0.16-0.718,0.316-1.359,0.398-2.078c0.16-0.723,0.32-1.442,0.398-2.161
		C510.562,287.039,512,271.68,512,256C512,200.801,494.562,149.68,464.801,107.84z M405.922,399.817
		c-1.898,1.984-3.941,3.828-5.918,5.738c-2.102,2.024-4.153,4.11-6.336,6.039c-0.985,0.875-2.043,1.664-3.043,2.52
		c-3.281,2.793-6.574,5.566-10.015,8.152c-0.176,0.133-0.359,0.246-0.531,0.375c-13.031,9.726-27.172,17.961-42.149,24.453
		c-1.008,0.434-2.058,0.782-3.074,1.199c-3.961,1.645-7.945,3.238-12.015,4.641C301.863,460.09,279.39,464,256,464
		c-32.879,0-64.078-7.68-91.758-21.519c-0.481-0.238-1.039-0.481-1.52-0.719c-5.281-2.641-10.48-5.519-15.519-8.641
		c-0.481-0.32-0.961-0.562-1.442-0.961C87.121,395.442,48,330.16,48,256c0-20.078,2.801-39.282,8.242-57.68v-0.078
		c0.48-1.84,1.117-3.684,1.679-5.524v-0.078c2.414-7.598,5.313-14.989,8.566-22.188c2.278,2.626,4.383,5.406,6.016,8.45
		c2.847,5.218,3.309,10.726,3.176,17.879c-0.066,1.5-0.066,3.074-0.066,4.648v0.07c-0.066,1-0.066,2-0.066,3.074
		c0,7.938,2.976,13.515,6.09,19.453l0.726,1.356c0.199,1.789,1.653,4.363,3.637,7.726c0.598,1.07,1.125,1.93,1.39,2.5
		c1.192,2.648,5.891,13.23,5.891,13.23c0.594,1.214,1.254,2.718,2.445,3.718c0.664,0.574,1.59,0.93,2.45,0.93
		c0.992,0,1.918-0.43,2.578-1.214c1.458-1.79,0.863-4.719-0.527-6.293c-0.598-0.79-1.324-1.29-1.984-1.86
		c-0.465-0.359-0.992-0.789-1.391-1.214c-0.793-1.004-0.926-1.574-0.926-1.645c0-0.074,0.332-0.289,0.926-0.289
		c0.727,0,1.586,0.289,2.184,0.714c3.574,2.363,4.894,6.438,6.285,10.801c1.192,3.719,2.45,7.508,5.161,10.582
		c3.242,3.648,6.55,4.504,9.726,5.363c1.453,0.359,2.91,0.715,4.496,1.43c5.558,2.359,11.382,7.508,17.867,15.805
		c2.313,3.004,3.77,3.359,6.347,3.789c0.665,0.145,1.524,0.286,2.516,0.5c0.66,0.215,1.191,0.36,1.652,0.574
		c-0.328,1.07-0.328,2.215-0.262,3.145c0.066,1.289,0.066,2.218-0.531,3.148c-0.394,0.645-0.859,1.145-1.324,1.645
		c-0.527,0.5-0.992,1.07-1.386,1.645c-4.766,6.007-4.367,15.804,1.191,29.031c1.453,3.578,3.77,6.293,5.953,8.941
		c1.918,2.286,3.703,4.434,4.961,7.008c1.852,3.79,0.398,7.223-1.258,11.153c-0.594,1.434-1.125,2.863-1.586,4.293
		c-2.317,7.438-3.641,15.445-4.633,22.238c-0.328,2.144-0.461,4.293-0.661,6.438c-0.266,3.074-0.465,5.934-1.125,8.867l-0.859,3.503
		c-0.66,3.004-1.39,5.938-1.918,8.938c-0.066,0.215-0.066,0.43-0.133,0.645c-0.86,5.934-0.86,10.656,0.066,15.09
		c0.926,4.645,3.109,8.223,6.086,10.082c1.519,1,3.242,1.574,4.894,1.574c1.922,0,3.641-0.79,4.766-2.145
		c0.793-1.074,1.719-3.078,1.258-6.297c-0.199-1.286-0.531-2.504-0.863-3.719c-0.328-1.14-0.66-2.285-0.793-3.43
		c-0.133-1-0.133-1.859,0-2.574c0-0.145,0-0.286,0.066-0.43c0.465-2.934,2.45-4.507,5.625-6.722
		c1.126-0.785,2.645-1.859,3.309-3.645c1.125-2.648,0.594-4.437,0.195-5.793c-0.394-1.504-0.594-2.218,1.391-4.293
		c1.191-1.215,2.582-2.145,4.034-3.145c1.258-0.859,2.516-1.718,3.641-2.718c0.992-0.93,1.719-2.145,2.379-3.149
		c0.465-0.855,0.992-1.714,1.59-2.214c1.191-1.074,2.516-1.145,4.168-1.29c1.719-0.214,3.703-0.355,5.492-2
		c1.719-1.574,2.778-3.863,3.836-6.007c0.465-0.93,0.926-2,1.325-3.074c1.453-3.289,2.91-6.722,5.226-8.722
		c1.324-1.219,2.976-1.93,4.762-2.79c2.183-1.004,4.5-2.074,6.484-4.148c2.649-2.719,3.11-6.867,3.508-10.871
		c0.328-2.645,0.594-5.434,1.586-7.578c0.926-2.074,2.25-3.578,3.706-5.148c1.387-1.574,2.778-3.149,3.836-5.294
		c2.051-4.218,0.926-6.078-0.527-7.793c-0.199-0.289-0.465-0.574-0.73-0.93c-0.726-1.289-1.984-1.574-3.309-1.934
		c-1.519-0.426-3.242-0.855-5.293-3.074c-3.238-3.289-3.371-3.434-6.48-4.504l-1.852-0.644c-5.23-1.93-5.164-2.145-4.965-3.074
		c0.73-2.859-0.859-4.149-4.102-6.652c-0.793-0.57-1.652-1.286-2.711-2.145c-0.797-0.645-1.258-1.07-1.59-1.359
		c0.726-0.856,0.726-1.93,0.066-3.359c-1.258-2.504-3.836-3.004-6.086-3.504c-1.59-0.36-3.043-0.645-3.969-1.5
		c-1.126-1.074-1.985-2.219-2.848-3.434c-1.652-2.219-3.305-4.578-6.613-4.578c-0.665,0-1.391,0.07-2.051,0.215
		c-1.058,0.285-1.922,0.644-2.781,0.93c-0.993,0.359-1.786,0.644-2.446,0.644c-0.398,0-1.258,0-2.45-2.789
		c-0.527-1.289-1.39-2.934-2.91-2.934c-1.852,0-2.914,2.218-4.168,4.793l-0.598,1.074c-0.926,1.855-2.313,2.715-3.176,2.715
		c-0.461,0-0.726-0.215-0.859-0.715c-0.394-1-0.86-2.359-2.383-2.359c-0.262,0-0.527,0-0.926,0.141
		c-0.461,0.074-1.125,0.218-2.051,0.218c-0.332,0-0.726,0-1.125-0.074c-4.035-0.355-4.035-1.859-4.035-3.289
		c0-0.859,0.133-1.574,0.398-2.359c0.266-1.29,0.66-2.79,0.594-5.363c0-3.719-2.511-4.004-4.562-4.29
		c-1.523-0.214-3.175-0.43-4.898-1.574c-0.453-0.281-0.71-0.488-0.906-0.633l0.062-0.058c0.199-0.129,0.469-0.254,0.644-0.382
		c1.126-0.641,2.516-1.5,3.114-3.074c0.328-0.93,0.594-1.93,0.129-2.859c-0.461-0.93-1.386-1.074-2.446-1.29
		c-0.73-0.14-1.785-0.355-3.109-0.785c-0.794-0.286-1.458-0.43-1.985-0.43c-2.183,0-2.515,2.004-2.648,3.074
		c-0.133,1.003-0.266,1.859-1.391,2.789c-1.254,0-4.035-3.004-6.418-7.008c-1.32-2.214-1.32-2.645,0.664-12.297
		c0.172-0.89,0.316-1.504,0.45-2.004c0.105-0.207,0.218-0.406,0.374-0.539c1.059,1.29,2.707,3.262,5.527,3.973
		c1.985,0.43,2.91,0.641,3.57,0.641c1.657,0,2.055-1.215,2.184-1.786c0.133-0.43,0.266-0.789,0.863-1.434
		c0.793-0.785,0.992-0.926,1.054-0.926c0.133,0,0.531,0.141,0.93,0.286c0.86,0.285,2.051,0.714,4.035,1.07
		c3.371,0.574,3.57,1.214,4.035,3.003c0.133,0.645,0.332,1.29,0.66,2.074l0.466,1.145c0.594,1.645,1.058,2.645,2.25,2.645
		c0.66,0,1.125-0.356,1.652-0.715c1.852-1.215,1.524-4.145,1.192-7.578c-0.266-2.074-0.531-4.934,0-5.793
		c0.992-1.43,2.449-2.074,4.102-2.789c1.457-0.645,3.042-1.289,4.367-2.645c1.785-1.859,2.515-4.293,3.308-6.652
		c0.262-0.859,0.528-1.715,0.86-2.574c0.926-2.215,1.258-2.289,2.316-2.5c0.594-0.145,1.52-0.289,2.645-0.859
		c2.117-1.074,2.976-3.434,3.774-5.508c0.66-1.645,1.254-3.218,2.246-3.789c0.332-0.215,0.598-0.286,0.863-0.286
		c0.461,0,0.926,0.57,1.653,1.43c0.992,1.286,2.316,3.004,4.699,3.004l0.859-0.074c2.117-0.355,3.442-1.14,4.102-2.503
		c1.125-2.286-0.066-5.004-1.324-7.934c-1.126-2.719-2.317-5.508-1.454-7.298c0.594-1.285,4.629-1.57,7.606-1.859
		c4.434-0.285,8.203-0.57,9.262-3.289c0.797-2.145-0.726-4.434-1.984-5.934c-3.637-4.578-4.629-7.578-6.352-13.301
		c-0.328-1.218-1.453-4.863-4.43-4.863c-1.258,0-2.449,0.645-3.707,1.289c-1.125,0.641-2.316,1.215-3.902,1.286
		c-2.117,0-2.382-0.79-2.582-4.219c-0.129-1.789-0.262-3.793-1.191-5.648c-1.387-2.719-3.172-4.078-5.36-4.078
		c-2.843,0-5.621,2.504-7.804,4.504c-0.794,0.718-1.586,1.43-2.25,1.859c-0.992,0.719-1.652,1.574-1.851,2.578
		c-0.266,1.714,0.726,3.074,1.586,4.359c0.398,0.645,0.93,1.43,0.992,1.93c0.332,1.645-0.461,3.434-1.32,5.293
		c-0.465,1.074-0.926,2.145-1.191,3.145c-0.266,1.004-0.398,2.148-0.531,3.293c-0.196,1.5-0.329,2.93-0.926,4.004
		c-0.461,0.859-1.191,1.859-1.918,1.859c-1.586,0-3.969-3.648-5.16-7.008l-0.461-1.214c-1.657-4.508-3.047-8.367-8.934-9.012
		c-2.711-0.214-4.434-2.289-6.352-4.718l-1.324-1.649c-0.726-0.785-1.058-2.285-0.992-4.214c0.066-2.934,1.191-6.153,2.582-7.512
		c0.859-0.926,1.852-1.07,3.043-1.214c1.125-0.215,2.382-0.356,3.57-1.215c1.191-0.715,1.984-1.789,2.781-2.859
		c0.594-0.859,1.192-1.645,1.918-2.149c0.926-0.71,2.777-1,4.5-1.285c3.438-0.574,7.41-1.215,8.668-5.078
		c0.527-1.714,0.461-3.214-0.266-4.434c-1.59-2.645-5.493-3.145-8.934-3.574c-1.074-0.113-2.371-0.266-3.09-0.461
		c-0.164-0.09-0.304-0.179-0.359-0.297l-0.011,0.156c-0.028-0.015-0.09-0.027-0.11-0.042c0.039,0.023,0.066,0.113,0.102,0.187
		l-0.031,0.496l-1.129-0.539l-0.965-0.465l-0.078-0.05c0,0-0.004,0.004-0.008,0.011l-0.141-0.07c-0.465,1.214-0.863,1.43-0.926,1.43
		c-0.598,0-2.25-2.215-3.574-5.719c-1.125-3.074-3.042-4.934-5.16-4.934c-1.457,0-2.778,0.859-3.309,2.29
		c-0.66,1.644-0.133,3.644,1.391,5.218c1.386,1.5,1.519,2.004,1.386,2.5c-0.262,0.43-0.527,1.004-0.66,1.863
		c-0.195,1.34-1.035,3.082-1.691,3.954l-0.141-0.215c-0.129-0.285-0.25-0.594-0.352-0.809c-0.461-1-0.992-2.144-1.918-2.718
		c-2.45-1.859-8.996-3.145-13.562-3.145c-2.649,0-4.566,0.359-5.758,1.145c-1.891,1.137-2.379,2.152-2.282,3.519
		c-0.008,0.246,0.004,0.524,0.015,0.805c-0.206-0.398-0.418-0.797-0.578-1.25c-0.594-1.074-1.191-1.86-1.918-2.145
		c-0.133-0.145-0.266-0.145-0.398-0.215c-0.594-0.214-1.187-0.359-1.984-0.359c-0.461,0-1.058,0.074-1.586,0.145
		c-0.398,0.07-0.797,0.07-1.59,0.07h-0.594c-1.656-0.141-1.656-0.141-1.656-2.145c0-2.114-2.391-3.234-6.329-4.289
		c-0.488-0.153-0.918-0.301-1.465-0.458c0.742-0.918,1.454-1.863,2.207-2.766c0.402-0.402,0.723-0.878,1.122-1.281
		C135.442,76.641,192.481,48,256,48c37.906,0,73.39,10.199,103.977,27.953c13.75,8.078,26.629,17.805,38.34,29.11
		c-0.114-0.008-0.223-0.012-0.34-0.035c-1.278-0.16-2.555-0.406-4.508-0.406c-2.102,0-4.133,0.406-6.086,0.895
		c-1.051,0.164-2.028,0.406-3.004,0.57c-0.528,0.078-0.977,0.078-1.426,0.078c-1.503,0-3.007-0.242-4.507-0.484
		c-1.653-0.329-3.305-0.57-5.035-0.57c-2.328,0.082-4.207,0.976-5.559,1.707c-0.152,0.078-0.226,0.16-0.374,0.242
		c-0.454,0.242-0.902,0.489-1.352,0.73c-0.754,0.489-1.504,0.973-2.332,1.379c-4.042,1.91-8.176,3.203-12.164,3.793
		c-1.062,0.122-2.121,0.219-3.156,0.219c-0.156,0-0.313-0.004-0.469-0.008c0.828-0.485,1.55-1.141,2.043-2.055
		c1.05-1.785,0.824-3.328,0.523-4.3c-1.199-3.574-6.383-5.36-10.59-6.742c-1.278-0.485-2.63-0.973-3.082-1.219
		c-0.824-0.566-1.351-1.378-2.027-2.434c-0.527-0.812-1.129-1.625-1.805-2.438c-2.402-2.355-5.859-3.574-10.293-3.574
		c-2.778,0-6.008,0.488-9.012,1.465c-6.914,2.031-11.722,7.144-16.453,12.179c-3.606,3.813-7.062,7.551-11.418,9.825
		c-4.285,2.273-14.203,7.55-11.347,15.996c0.902,2.602,3.382,4.546,6.011,4.546c1.278,0,2.402-0.402,3.379-0.808l0.902-0.329
		c0.453-0.078,0.902-0.16,1.203-0.16c0.977,0,1.351,0.406,1.805,3.489c0.374,2.437,0.824,5.523,3.606,6.418
		c0.449,0.16,0.976,0.242,1.426,0.242c1.726,0,3.531-0.973,4.734-2.516c1.652-2.113,1.953-4.305,2.254-6.336l0.222-1.542
		c0.454-2.758,1.578-5.602,3.231-7.958c1.031-1.422,2.105-2.382,3.266-3.156c0.355-0.199,0.671-0.453,1.066-0.594
		c-0.278,0.926-0.5,1.851-0.5,2.859c0,0.562,0.226,1.012,0.324,1.535c0.027,0.152,0.058,0.309,0.094,0.457
		c0.406,1.672,1.121,3.164,2.363,4.098c0.45,0.325,0.902,0.566,1.352,0.891c1.125,0.652,1.804,1.14,1.878,1.949
		c0.149,0.489-0.074,1.95-2.254,6.008c-3.684,6.578-10.668,10.882-17.957,10.882c-0.75,0-1.578-0.082-2.329-0.164
		c-0.602-0.078-2.629-0.324-3.004-1.703c-0.152-0.57,0-1.785,0.149-2.843c0.301-2.027,0.676-4.305-0.523-6.008
		c-0.602-0.973-1.578-1.543-3.458-1.703c-1.351,0-2.629,0.566-3.906,1.703c-1.426,1.218-2.254,2.926-3.004,4.547
		c-0.301,0.488-0.527,1.054-0.902,1.706c-0.527,1.055-1.278,1.867-2.106,2.84c-0.602,0.649-1.203,1.301-1.726,2.031
		c-0.75,1.055-1.43,2.192-2.18,3.328c-1.5,2.52-3.004,4.875-4.957,6.497c-1.352,1.054-2.782,1.542-4.286,1.625
		c-0.523,0-1.351-0.324-2.175-0.649c-1.051-0.488-2.18-0.894-3.23-0.894l-0.902,0.082l-0.227,0.082
		c-1.652,0.566-2.855,2.438-2.702,4.305c0.152,2.434,1.801,3.734,3.156,4.789c0.824,0.566,1.578,1.137,1.953,1.786
		c0.45,0.894,0.524,1.625,0.149,2.438c-0.676,1.621-3.078,3.004-4.809,3.328c-0.75,0.164-1.5,0.164-2.25,0.242
		c-1.958,0.164-3.91,0.324-5.79,1.301c-3.828,2.031-6.082,7.144-5.332,11.937c1.051,5.442,6.086,8.688,10.367,8.688h0.902
		c5.332-0.485,8.715-4.465,11.871-8.363c1.199-1.383,2.328-2.762,3.527-3.977c2.106-2.031,4.887-2.684,7.817-3.414
		c0.824-0.16,1.652-0.406,2.476-0.648c0.676-0.16,1.278-0.242,1.958-0.242c4.43,0,7.961,4.543,9.766,7.226
		c1.574,2.516,2.175,5.36,1.426,8.606c-0.152,0.813-0.375,1.789-0.074,2.844c0.523,2.031,1.653,2.355,2.328,2.355
		c1.504,0,2.555-1.789,3.458-3.332c0.374-0.648,1.05-1.297,1.726-1.949c1.504-1.462,3.606-3.57,3.004-6.898
		c-0.098-0.426-0.359-0.665-0.512-1.035c-0.129-0.367-0.238-0.746-0.379-1.122c1.024,1.438,1.922,2.973,2.469,4.754
		c0.602,2.191,1.055,4.546,1.653,7.469c0.453,2.191,1.652,3.574,3.457,3.738c1.426,0,2.554-1.222,3.156-1.789
		c0.902-1.054,1.578-2.274,2.18-3.41c1.274-2.273,2.176-3.652,3.906-4.058l0.75-0.164c0.602-0.082,1.278-0.164,2.028-0.406
		c3.003-1.218,3.082-3.734,3.082-5.602c0-0.652,0-1.301,0.149-1.949c0.374-1.79,3.156-5.848,4.882-5.848c0.078,0,0.078,0,0.078,0
		c0.297,0.325,0.523,0.813,0.75,1.379c0.301,0.734,0.676,1.546,1.426,2.355c0.676,0.653,1.504,1.058,2.406,1.058
		c0.676,0,1.352-0.324,1.879-0.812c1.125-0.973,1.125-2.438,1.199-3.492l0.074-0.895c0.074-0.687,1.386-2.218,2.042-3.074
		l0.13-0.098c0.046,0.297-0.149,1.171-0.294,1.793l-0.301,0.973c-0.602,3.003,0.301,6.09,2.329,8.281
		c0.378,0.328,0.828,0.653,1.355,0.894c0.375,0.246,0.977,0.653,0.977,0.973c-0.153,0.164-0.676,0.246-1.051,0.246
		c-1.281,0.164-2.48,0.242-3.683,0.242c-3.531,0.164-7.211,0.328-11.043,2.843c-1.278,0.89-2.855,2.191-3.606,4.223
		c-0.977,2.355-0.375,5.113,1.352,6.496c0.675,0.566,1.578,0.894,2.48,0.894c0.824,0,1.5-0.246,2.176-0.406
		c0.602-0.164,1.054-0.242,1.504-0.242c0.374,0,0.602,0.078,0.828,0.242c0.977,0.813,1.5,2.274,1.5,4.222
		c0,2.516-1.051,5.195-2.477,6.25c-0.828,0.57-1.878,0.812-3.382,0.812c-0.977,0-2.102-0.078-3.078-0.242l-1.578-0.164
		c-4.133-0.325-8.266-0.895-12.32-1.543l-8.793-1.379c-5.106-0.73-9.539-1.707-12.394-5.035c-0.902-1.054-1.653-2.273-2.402-3.492
		c-0.977-1.625-1.954-3.246-3.383-4.629c-1.504-1.461-3.23-2.191-5.41-2.191c-1.801,0-3.679,0.57-5.484,1.058
		c-1.351,0.402-2.703,0.809-4.129,0.973c-1.43,0.16-3.457,0.324-5.558,0.488c-3.157,0.16-6.462,0.406-8.641,0.89
		c-2.106,0.406-4.133,0.649-6.16,0.813c-4.962,0.488-10.066,0.973-14.274,4.953c-0.977,0.895-2.18,1.786-3.457,2.68
		c-2.63,1.785-5.258,3.574-6.614,6.254c-0.898,1.786-2.102,3.329-3.23,4.954c-2.176,3.086-4.355,6.168-5.106,10.39
		c-0.379,2.438,1.726,5.363,4.129,8.774c1.355,1.867,3.383,4.707,3.383,5.683c-0.074,3.977,2.102,9.5,3.832,13.965
		c0.523,1.301,0.976,2.52,1.351,3.574c2.778,8.203,5.711,9.094,12.695,10.473c1.879,0.406,3.531,1.218,5.336,2.114
		c2.328,1.137,4.809,2.355,7.738,2.355h0.75c1.202-0.082,2.554-0.566,4.054-0.977c1.504-0.566,3.082-1.054,4.285-1.054
		c0.45,0,0.825,0.082,1.051,0.164c2.93,1.379,5.41,4.141,7.438,8.363c0.523,1.137,0.602,3.004,0.602,4.789
		c0,1.626,0,3.332,0.449,4.794c0.676,2.515,1.504,4.871,2.328,7.226c1.578,4.305,3.082,8.445,3.458,13.234
		c0.226,2.519,0.828,5.199,1.43,7.797c0.675,3.246,1.426,6.496,1.5,9.582c0.078,3.493-0.149,7.309-0.301,11.126
		c-0.223,3.894-0.45,7.874-0.375,11.531c0.226,6.98,3.531,15.343,8.039,19.976c1.726,1.703,3.457,2.598,5.258,2.598
		c2.18,0,4.058-1.137,6.313-2.356c0.824-0.488,1.726-0.977,2.629-1.465c11.718-5.844,19.382-18.836,25.543-29.312
		c3.378-5.766,7.586-12.91,8.562-21.032c0.301-2.679,0.226-5.519,0.152-8.199c-0.054-2.972-0.152-5.851,0.27-8.574
		c0.004-0.028,0.012-0.055,0.016-0.086c0.14-0.894,0.339-1.77,0.617-2.629c1.953-6.172,6.91-9.906,12.094-13.805
		c3.68-2.758,7.512-5.602,10.367-9.418c2.027-2.68,3.531-6.578,1.726-9.746c-1.05-1.949-2.855-2.84-5.406-2.84
		c-1.129,0-2.406,0.161-3.606,0.406l-1.356,0.16c-0.374,0.082-0.75,0.082-1.125,0.082c-5.183,0-9.617-4.058-11.871-10.883
		c-1.801-5.195-3.23-10.633-4.582-15.996c-1.203-4.542-2.328-9.094-3.758-13.476c-0.066-0.215-0.11-0.418-0.106-0.598
		c0.054-0.113,0.214-0.246,0.371-0.374c0.054-0.02,0.035-0.074,0.113-0.082c0.523,0.402,0.75,1.379,1.125,2.434
		c2.102,7.226,4.207,14.454,6.387,21.602c1.578,5.438,3.531,10.961,8.039,13.317c1.426,0.73,2.93,1.054,4.656,1.054
		c2.328,0,4.66-0.649,6.91-1.382c4.734-1.622,9.015-4.059,13.148-6.41c2.555-1.465,5.11-2.844,7.738-4.145
		c2.554-1.218,3.981-3.168,3.981-5.442c-0.074-2.109-1.426-3.976-3.68-5.031c-1.578-0.812-3.23-1.301-4.809-1.706
		c-0.976-0.325-1.878-0.566-2.703-0.895c-1.679-0.679-6.55-5.538-7.23-7.39c-0.042-0.141-0.082-0.278-0.094-0.394
		c0.23,0.008,0.578,0.078,0.938,0.234c2.481,0.894,4.883,1.789,7.664,2.844c1.278,0.484,2.703,1.054,3.754,1.867
		c0.602,0.484,1.13,1.054,1.653,1.625c0.679,0.809,1.43,1.703,2.406,2.351c1.203,0.813,2.554,1.301,4.133,1.301
		c1.274,0,2.554-0.324,3.754-0.57l0.754-0.16c0.676-0.164,1.426-0.324,2.102-0.324c0.977,0,1.727,0.242,2.329,0.73
		c0.976,0.809,1.43,2.516,1.878,4.465c0.602,2.844,1.578,7.066,5.485,7.551l0.902,0.082c0.449,0,0.976-0.082,1.426-0.16l1.355-0.082
		c0.375,0,0.672,0,0.898,0.242c0.902,0.73,0.828,3.734,0.75,5.684c0,1.058-0.074,2.031,0,2.762c0.301,2.762,0.902,5.359,1.578,7.957
		c0.301,1.301,0.68,2.683,1.055,4.793c0.675,3.246,1.351,6.902,5.258,8.203c0.824,0.242,1.578,0.402,2.328,0.402
		c0.676,0,1.352-0.082,2.027-0.402c0.301-0.086,0.602-0.164,0.902-0.328c2.555-1.301,4.508-4.141,5.184-7.551
		c0.152-1.136,0.375-2.195,0.527-3.168c0.75-4.546,1.203-7.472,4.957-9.742c0.602-0.325,1.278-0.73,1.954-1.058
		c1.652-0.809,3.308-1.703,4.734-3.082c0.602-0.488,1.125-1.141,1.652-1.789c0.375-0.406,0.75-0.813,1.203-1.219
		c0.676-0.809,1.426-1.137,2.254-1.137c2.703,0,5.934,4.551,7.512,6.661c2.027,2.839,2.703,6.09,3.457,9.824l0.45,1.871
		c0,0,0.976,4.382,1.277,5.277c1.653,7.062,3.458,12.828,6.688,17.699l0.469,0.695l0.203,0.469c0.007-0.046,0.015-0.09,0.023-0.136
		l0.129,0.191c0.153-0.73,0.301-1.461,0.375-2.191c2.554-15.106,3.906-30.696,3.906-46.61c0-2.258-0.141-4.473-0.242-6.703
		l0.004-0.058C463.766,247.07,464,251.508,464,256c0,11.199-0.879,22.242-2.641,33.039c-0.078,0.562-0.156,1.203-0.316,1.762
		c-0.485,2.871-1.195,5.66-1.828,8.477l-0.278,0.878c-0.328-0.445-0.66-0.934-0.859-1.218c-2.406-3.328-5.031-7.145-8.562-8.93
		c-0.68-0.328-1.282-0.489-1.879-0.489c-0.527,0-0.977,0.082-1.355,0.161c-0.298,0.082-0.524,0.164-1.051,0.164h-0.301l-1.426,0.242
		l-0.45,0.977c-0.602,1.539,0.297,3.328,4.43,8.282c0.375,0.488,0.602,0.812,0.75,0.976c2.481,3.653,4.434,7.551,6.766,12.016
		l0.394-0.019l0.438,0.152l-0.683,0.191l0.339,1.558c-9.144,31.294-25.531,59.508-47.105,82.856
		C407.547,397.973,406.774,398.934,405.922,399.817z M295.129,185.984c-0.75-0.484-1.351-1.05-1.953-1.785
		c0.449,0.246,0.976,0.57,1.277,0.734c0.895,0.707,1.602,1.574,2.329,2.45c0.046,0.074,0.098,0.144,0.144,0.222
		C296.328,187.008,295.726,186.438,295.129,185.984z" style="fill: rgb(255, 255, 255);"></path>
</g>
</svg>
