<!--?xml version="1.0" encoding="utf-8"?-->
<!-- Generator: Adobe Illustrator 19.1.1, SVG Export Plug-In . SVG Version: 6.00 Build 0)  -->
<svg version="1.1" id="_x31_0" xmlns="http://www.w3.org/2000/svg" xmlns:xlink="http://www.w3.org/1999/xlink" x="0px" y="0px" viewBox="0 0 512 512" style="width: 256px; height: 256px; opacity: 1;" xml:space="preserve">
<style type="text/css">
	.st0{fill:#374149;}
</style>
<g>
	<path class="st0" d="M361.536,58.154v156.215l26.945-26.946V58.154c0-19.805-16.102-35.969-35.906-35.969H281.91
		c0,0.066,0,0.066,0,0.133v26.676c0,0.066,0,0.066,0,0.137h70.664C357.493,49.131,361.536,53.17,361.536,58.154z" style="fill: rgb(255, 255, 255);"></path>
	<path class="st0" d="M388.481,349.053v-0.226l-26.945,26.945v87.102c0,4.918-4.043,8.958-8.962,8.958H35.973
		c-4.988,0-9.027-4.039-9.027-8.958V58.154c0-4.984,4.039-9.023,9.027-9.023h70.66c0-0.07,0-0.07,0-0.137V22.318
		c0-0.066,0-0.066,0-0.133h-70.66C16.168,22.185,0,38.349,0,58.154v404.719c0,19.805,16.168,35.902,35.973,35.902h316.602
		c19.805,0,35.906-16.098,35.906-35.902v-66.734l0.114-47.199L388.481,349.053z" style="fill: rgb(255, 255, 255);"></path>
	<path class="st0" d="M142.672,58.154h103.133c4.985,0,9.094-4.039,9.164-9.023c0-0.07,0-0.07,0-0.137V22.318
		c0-0.066,0-0.066,0-0.133c-0.07-4.918-4.179-8.961-9.164-8.961H142.672c-4.984,0-9.023,4.043-9.094,8.961c0,0.066,0,0.066,0,0.133
		v26.676c0,0.066,0,0.066,0,0.137C133.649,54.115,137.688,58.154,142.672,58.154z" style="fill: rgb(255, 255, 255);"></path>
	<path class="st0" d="M155.336,157.764l0.114-14.078l-0.114,0.114v-0.226l-6.734,6.805l-6.738,6.734v20.41
		c0,1.821-1.546,3.371-3.367,3.371H95.653c-1.883,0-3.367-1.55-3.367-3.371v-19.734l-6.734-6.738l-3.891-3.891l-2.687-2.847v0.164
		l-0.16-0.16v33.206c0,9.298,7.546,16.844,16.84,16.844h42.843c9.298,0,16.84-7.546,16.84-16.844V157.764z" style="fill: rgb(255, 255, 255);"></path>
	<polygon class="st0" points="105.356,124.576 112.024,131.311 121.387,131.311 128.122,124.576 131.985,120.678 134.793,117.998 
		134.633,117.998 134.793,117.838 113.645,117.838 98.801,117.724 98.91,117.838 98.684,117.838 	" style="fill: rgb(255, 255, 255);"></polygon>
	<path class="st0" d="M155.336,239.092c0-9.297-7.542-16.839-16.84-16.839H95.653c-9.294,0-16.84,7.542-16.84,16.839v42.844
		c0,9.297,7.546,16.84,16.84,16.84h42.843c9.298,0,16.84-7.543,16.84-16.84V239.092z M92.286,239.092
		c0-1.886,1.484-3.367,3.367-3.367h42.843c1.821,0,3.367,1.481,3.367,3.367v42.844c0,1.821-1.546,3.367-3.367,3.367H95.653
		c-1.883,0-3.367-1.546-3.367-3.367V239.092z" style="fill: rgb(255, 255, 255);"></path>
	<path class="st0" d="M138.496,326.666H95.653c-9.294,0-16.84,7.543-16.84,16.84v42.844c0,9.293,7.546,16.84,16.84,16.84h42.843
		c9.298,0,16.84-7.547,16.84-16.84v-42.844C155.336,334.209,147.794,326.666,138.496,326.666z M92.286,343.506
		c0-1.886,1.484-3.367,3.367-3.367h42.843c1.821,0,3.367,1.481,3.367,3.367v42.844c0,1.817-1.546,3.367-3.367,3.367H95.653
		c-1.883,0-3.367-1.55-3.367-3.367V343.506z" style="fill: rgb(255, 255, 255);"></path>
	<rect x="191.106" y="129.83" class="st0" width="117.078" height="14.754" style="fill: rgb(255, 255, 255);"></rect>
	<rect x="191.106" y="165.467" class="st0" width="73.629" height="14.75" style="fill: rgb(255, 255, 255);"></rect>
	<polygon class="st0" points="308.184,234.244 191.626,234.244 191.27,234.24 191.27,234.244 191.106,234.244 191.106,248.994 
		308.184,248.994 	" style="fill: rgb(255, 255, 255);"></polygon>
	<polygon class="st0" points="264.734,269.877 191.493,269.877 191.27,269.877 191.27,269.877 191.106,269.877 191.106,284.631 
		264.734,284.631 	" style="fill: rgb(255, 255, 255);"></polygon>
	<polygon class="st0" points="191.606,338.655 191.27,338.655 191.27,338.655 191.106,338.655 191.106,353.408 242.234,353.408 
		245.778,342.163 246.883,338.815 246.833,338.815 246.883,338.655 	" style="fill: rgb(255, 255, 255);"></polygon>
	<polygon class="st0" points="191.539,374.292 191.27,374.288 191.27,374.292 191.106,374.292 191.106,389.041 231.122,389.041 
		234.63,377.748 235.699,374.452 235.653,374.452 235.703,374.292 	" style="fill: rgb(255, 255, 255);"></polygon>
	<path class="st0" d="M158.234,103.826l-14.683,14.754l-5.93,5.996l-6.668,6.734l-14.215,14.281l-14.145-14.281l-6.738-6.734
		l-5.727-5.794l-0.882-0.882l-0.012-0.019l-0.004,0.003l-0.109-0.113l-2.899,2.965l-0.269,0.203
		c-1.551,1.078-2.965,2.492-4.043,4.039l-0.199,0.27l-6.133,6.062l3.234,3.371l1.55,1.613l5.188,5.188l6.734,6.804l21.691,21.758
		c0.809,0.808,1.82,1.144,2.762,1.144c1.012,0,2.023-0.336,2.762-1.144l22.363-22.5l6.738-6.734l6.734-6.734v-0.07l16.504-16.57
		L158.234,103.826z" style="fill: rgb(255, 255, 255);"></path>
	<path class="st0" d="M509.13,189.784L465.681,146.4c-3.57-2.625-8.559-2.426-11.657,0.676l-65.543,65.543l-26.945,26.945
		l-94.578,94.578l-1.414,4.512l-4.582,14.754l-6.531,20.883l-4.649,14.75l-5.121,16.438c-0.203,0.809-0.203,1.551-0.066,2.293
		c0.066,0.402,0.133,0.738,0.336,1.074c0,0.07,0,0.07,0,0.07c0.203,0.469,0.472,0.875,0.808,1.278c0,0,0,0,0.066,0
		c0.203,0.336,0.539,0.539,0.879,0.808c0.066,0.066,0.199,0.203,0.336,0.27c0.27,0.203,0.606,0.336,0.942,0.473
		c0.203,0.066,0.336,0.133,0.538,0.133c0.336,0.137,0.676,0.203,1.012,0.203c0.066,0,0.133,0,0.133,0
		c0.203,0,0.473-0.066,0.676-0.066c0.27-0.066,0.539,0,0.809-0.137l71.336-22.226l39.07-39.074l26.945-26.946l121.051-121.046
		c0.336-0.34,0.676-0.676,0.942-1.078C513.036,198.002,512.227,192.952,509.13,189.784z M328.704,364.709l-3.41-11.234
		l36.242-36.242l26.945-26.945l101.383-101.379l7.406,7.41l-108.79,108.789l-5.523,5.523l-21.422,21.356l-22.321,22.32
		L328.704,364.709z M276.051,390.389c-0.672-1.75-2.019-3.906-3.973-5.859c-1.953-1.954-4.11-3.367-5.863-3.977l8.488-27.145
		l3.84-12.328l2.426-2.426l4.785-4.782l15.828,4.782l1.348,0.406v14.347v1.75h16.031l4.515,14.886l-8.015,8.016L276.051,390.389z
		 M485.216,184.26l-96.735,96.734l-26.945,26.942l-40.622,40.622h-11.449v-11.383l52.07-52.074l26.945-26.945l85.348-85.282
		L485.216,184.26z M388.481,248.928l-26.945,26.879l-56.922,56.922l-8.351-2.493l-2.695-0.878l-0.902-0.25l-0.27-0.125
		l38.691-38.762l30.45-30.45l26.945-26.946l35.77-35.699l36.914-36.918l8.016,8.019L388.481,248.928z" style="fill: rgb(255, 255, 255);"></path>
</g>
</svg>
