<?xml version="1.0" encoding="utf-8"?>
<!-- Generator: Adobe Illustrator 18.1.1, SVG Export Plug-In . SVG Version: 6.00 Build 0)  -->
<!DOCTYPE svg PUBLIC "-//W3C//DTD SVG 1.1//EN" "http://www.w3.org/Graphics/SVG/1.1/DTD/svg11.dtd">
<svg version="1.1" id="_x31_0" xmlns="http://www.w3.org/2000/svg" xmlns:xlink="http://www.w3.org/1999/xlink" x="0px" y="0px"
	 viewBox="0 0 512 512" xml:space="preserve">
<style type="text/css">
	.st0{fill:#D0D0D0;}
</style>
<g>
	<path class="st0" d="M293.849,380.192c-5.806,0.696-11.686,1.082-17.57,1.082c-8.59,0-17.26-0.775-25.696-2.321
		c-9.21-1.625-18.265-4.105-26.935-7.51c-1.859-0.699-3.639-1.47-5.495-2.245l-65.019,64.94c-10.215,10.215-24.456,16.1-39.086,16.1
		c-14.55,0-27.941-5.574-37.77-15.79c-20.046-20.745-19.815-54.256,0.619-74.615l70.281-70.28l50.926-51.006
		c0.831-0.824,1.708-1.58,2.581-2.339c0.711-0.624,1.429-1.221,2.166-1.799c1.867-1.47,3.814-2.808,5.839-4.002
		c0.695-0.412,1.394-0.801,2.106-1.179c2.105-1.115,4.282-2.086,6.522-2.906c0.806-0.294,1.622-0.566,2.442-0.82
		c2.166-0.673,4.388-1.206,6.652-1.595c1.02-0.178,2.048-0.321,3.084-0.438c1.092-0.124,2.177-0.264,3.284-0.321
		c0.079,0,0.079,0,0.079,0c1.006-0.158,2.01-0.158,3.02-0.158c6.346,0,12.615,1.164,18.575,3.409
		c7.12,2.63,13.545,6.734,18.961,12.15c4.645,4.645,8.36,9.981,10.994,15.87c0.23,0.616,0.54,1.156,0.926,1.625
		c2.479-1.009,4.724-2.555,6.659-4.49l39.01-39.01c-4.026-6.194-8.825-11.999-14.165-17.339c-5.341-5.341-11.146-10.14-17.34-14.241
		c-1.39-0.93-2.786-1.859-4.18-2.71c-5.805-3.481-11.92-6.505-18.11-8.901c-6.89-2.63-14.01-4.645-21.21-5.88
		c-6.655-1.164-13.466-1.784-20.276-1.784c-19.505,0-38.314,4.875-55.034,14.01c-9.441,5.189-18.186,11.765-25.926,19.506
		L34.867,315.098c-22.06,22.056-34.52,52.63-34.29,83.976c0.31,30.961,12.464,59.676,34.369,80.81
		C56.383,500.624,84.637,512,114.512,512c30.65,0,59.445-11.92,81.04-33.511l55.114-55.114l43.202-43.032
		c-0.064,0.008-0.125,0.008-0.189,0.015L293.849,380.192z"/>
	<path class="st0" d="M477.056,32.041C455.616,11.376,427.364,0,397.489,0c-30.65,0-59.445,11.841-81.04,33.515l-55.114,55.11
		l-43.202,43.032c0.064-0.008,0.125-0.008,0.189-0.015l-0.17,0.17c5.806-0.699,11.686-1.085,17.57-1.085
		c8.59,0,17.26,0.775,25.62,2.246c9.131,1.625,18.266,4.104,26.935,7.506c1.856,0.699,3.79,1.474,5.65,2.245l64.936-64.861
		c10.219-10.215,24.46-16.1,39.09-16.1c14.55,0,28.016,5.574,37.846,15.714c20.049,20.741,19.739,54.256-0.695,74.691l-70.202,70.28
		l-51.01,51.01c-9.286,9.286-21.591,14.702-34.83,15.322c-0.926,0.158-1.935,0.158-2.862,0.158c-6.425,0-12.618-1.089-18.578-3.334
		c-7.196-2.63-13.546-6.73-19.041-12.146c-4.641-4.649-8.28-9.985-10.91-15.87c-0.234-0.62-0.545-1.16-1.01-1.704
		c-1.855-2.786-5.03-4.49-8.511-4.49c-2.71,0-5.34,1.089-7.354,3.024l-29.8,29.871c-3.481,3.409-4.025,8.829-1.47,12.926
		c0.465,0.778,1.005,1.55,1.47,2.245c4.18,6.194,8.901,11.999,14.245,17.339c5.34,5.344,11.145,10.14,17.335,14.166
		c1.315,1.005,2.71,1.859,4.105,2.706c5.805,3.485,11.841,6.504,18.186,8.904c6.735,2.63,13.855,4.641,21.13,5.96
		c6.659,1.16,13.47,1.78,20.28,1.78c19.585,0,38.39-4.875,55.11-14.089c9.365-5.106,18.11-11.61,25.85-19.426l119.97-119.97
		c22.06-21.981,34.521-52.631,34.21-83.977C511.19,81.89,498.96,53.175,477.056,32.041z"/>
</g>
</svg>
