<?xml version="1.0" encoding="utf-8"?>
<!-- Generator: Adobe Illustrator 18.1.1, SVG Export Plug-In . SVG Version: 6.00 Build 0)  -->
<!DOCTYPE svg PUBLIC "-//W3C//DTD SVG 1.1//EN" "http://www.w3.org/Graphics/SVG/1.1/DTD/svg11.dtd">
<svg version="1.1" id="_x31_0" xmlns="http://www.w3.org/2000/svg" xmlns:xlink="http://www.w3.org/1999/xlink" x="0px" y="0px"
	 viewBox="0 0 512 512" xml:space="preserve">
<style type="text/css">
	.st0{fill:#D0D0D0;}
</style>
<g>
	<path class="st0" d="M287.541,293.078v-89.821c0-3.507-2.84-6.351-6.347-6.351h-50.387c-3.508,0-6.351,2.844-6.351,6.351v89.821
		c0,3.507-2.844,6.347-6.352,6.347h-28.191c-5.242,0-8.226,6.004-5.058,10.184l66.086,87.234c2.539,3.351,7.582,3.351,10.122,0
		l66.086-87.234c3.168-4.18,0.184-10.184-5.062-10.184h-28.191C290.385,299.426,287.541,296.586,287.541,293.078z"/>
	<path class="st0" d="M488.572,136.156l-63.015-63.015l-6.649-6.649L355.893,3.477C353.666,1.25,350.646,0,347.494,0H31.826
		c-6.562,0-11.879,5.317-11.879,11.875v488.246c0,6.559,5.317,11.879,11.879,11.879h448.347c6.562,0,11.879-5.32,11.879-11.879
		V144.554C492.053,141.406,490.798,138.383,488.572,136.156z M324.119,179.809h89.562c6.558,0,11.875,5.316,11.875,11.874v241.946
		c0,6.558-5.317,11.875-11.875,11.875H98.318c-6.558,0-11.879-5.317-11.879-11.875V78.367c0-6.558,5.321-11.875,11.879-11.875
		h202.046c6.559,0,11.879,5.317,11.879,11.875v89.562C312.244,174.488,317.561,179.809,324.119,179.809z"/>
</g>
</svg>
