<?xml version="1.0" encoding="UTF-8" standalone="no"?>
<!-- Created with Inkscape (http://www.inkscape.org/) -->
<svg xmlns:dc="http://purl.org/dc/elements/1.1/" xmlns:cc="http://web.resource.org/cc/" xmlns:rdf="http://www.w3.org/1999/02/22-rdf-syntax-ns#" xmlns:svg="http://www.w3.org/2000/svg" xmlns="http://www.w3.org/2000/svg" xmlns:sodipodi="http://sodipodi.sourceforge.net/DTD/sodipodi-0.dtd" xmlns:inkscape="http://www.inkscape.org/namespaces/inkscape" width="50.000008" height="39.999996" id="svg12281" sodipodi:version="0.32" inkscape:version="0.44" version="1.0" sodipodi:docbase="D:\Home\Wikipedia" sodipodi:docname="Simple icon table.svg">
  <defs id="defs12283"/>
  <sodipodi:namedview id="base" pagecolor="#ffffff" bordercolor="#666666" borderopacity="1.0" gridtolerance="10000" guidetolerance="10" objecttolerance="10" inkscape:pageopacity="0.0" inkscape:pageshadow="2" inkscape:zoom="12.975001" inkscape:cx="25.000004" inkscape:cy="19.999998" inkscape:document-units="px" inkscape:current-layer="layer1" inkscape:window-width="1024" inkscape:window-height="682" inkscape:window-x="-4" inkscape:window-y="-4"/>
  <metadata id="metadata12286">
    <rdf:RDF>
      <cc:Work rdf:about="">
        <dc:format>image/svg+xml</dc:format>
        <dc:type rdf:resource="http://purl.org/dc/dcmitype/StillImage"/>
      </cc:Work>
    </rdf:RDF>
  </metadata>
  <g inkscape:label="Layer 1" inkscape:groupmode="layer" id="layer1" transform="translate(-357.8571,-120.9336)">
    <path style="fill:white;fill-opacity:1;fill-rule:evenodd;stroke:none;stroke-width:3.99999928;stroke-linecap:square;stroke-linejoin:miter;stroke-miterlimit:4;stroke-dasharray:none;stroke-opacity:1" d="M 361.65381,122.94842 C 360.63549,123.06055 359.86651,123.92396 359.87256,124.94842 L 359.87256,156.94842 C 359.87267,158.05294 360.76804,158.94831 361.87256,158.94842 L 403.87256,158.94842 C 404.97708,158.94831 405.87245,158.05294 405.87256,156.94842 L 405.87256,124.94842 C 405.87245,123.8439 404.97708,122.94853 403.87256,122.94842 L 361.87256,122.94842 C 361.7997,122.94443 361.72667,122.94443 361.65381,122.94842 z M 363.87256,126.94842 L 370.87256,126.94842 L 370.87256,127.69842 L 370.87256,133.94842 L 363.87256,133.94842 L 363.87256,126.94842 z M 374.87256,126.94842 L 401.87256,126.94842 L 401.87256,133.94842 L 374.87256,133.94842 L 374.87256,127.69842 L 374.87256,126.94842 z M 363.87256,137.94842 L 370.87256,137.94842 L 370.87256,154.66717 L 370.87256,154.94842 L 363.87256,154.94842 L 363.87256,137.94842 z M 374.87256,137.94842 L 401.87256,137.94842 L 401.87256,154.94842 L 374.87256,154.94842 L 374.87256,154.66717 L 374.87256,137.94842 z " id="path12209"/>
  </g>
</svg>